<svg viewBox="0 0 50 51" fill="none" xmlns="http://www.w3.org/2000/svg">
<path d="M44.5626 38.284L43.7204 39.1263L45.558 40.8873L43.7204 42.725L44.5626 43.5672L47.2425 40.8873L44.5626 38.284Z" fill="currentColor"/>
<path d="M37.1355 38.284L34.5322 40.8873L37.1355 43.5672L37.9778 42.725L36.1402 40.8873L37.9778 39.1263L37.1355 38.284Z" fill="currentColor"/>
<path d="M38.1652 45.0749L39.1945 45.5844L43.5421 36.8009L42.5128 36.2915L38.1652 45.0749Z" fill="currentColor"/>
<path d="M40.8874 31.6992C40.1982 31.6992 39.5857 31.7758 38.8966 31.9289C37.4418 30.4741 35.6807 29.4787 33.69 28.8662C34.0728 27.1051 33.9197 25.7269 33.0008 24.7315C31.8523 23.4298 29.9381 23.2001 28.6365 23.2767C30.0913 21.6688 31.1632 19.6014 31.2398 17.2278C31.9289 16.6153 33.8431 14.9308 33.7665 13.0931C33.69 11.2555 32.4649 11.1789 32.1586 11.1789H32.082L32.3883 8.42249C32.5414 5.13006 31.0866 3.90497 30.0147 3.44556C31.0866 1.9142 30.7804 0.918817 30.7804 0.842249L30.5507 0.153136L29.9381 0.612545C29.249 1.07195 28.5599 1.30166 27.8708 1.30166C27.4114 1.30166 27.1051 1.14852 27.1051 1.14852C25.0378 0.229704 20.6734 0 20.4437 0C15.9262 0 14.5479 2.29704 14.2417 3.21586C10.4133 3.67527 10.5664 7.50367 10.643 9.3413C10.643 9.64758 10.643 9.95385 10.643 10.1836C10.643 10.5664 10.643 10.9492 10.7195 11.3321C10.1836 11.3321 9.18817 11.6383 9.18817 13.2463C9.1116 15.0839 11.0258 16.845 11.7149 17.381C11.7915 19.6014 12.7869 21.5922 14.1651 23.2001C12.8634 23.2001 10.7961 23.3533 9.64758 24.6549C8.80533 25.6503 8.57562 27.0285 9.03503 28.8662C3.67527 30.6272 0 35.7573 0 41.4233V43.8735H32.1586C33.3837 47.4722 36.8292 50.0755 40.8108 50.0755C45.8643 50.0755 49.9989 45.9408 49.9989 40.8874C50.0755 35.8339 45.9408 31.6992 40.8874 31.6992ZM32.1586 25.4972C32.8477 26.2628 32.9243 27.4879 32.3883 29.1724C32.3117 29.3256 30.7804 32.618 26.1863 33.8431C25.88 33.0008 25.2675 32.3117 24.4252 31.9289C25.1143 31.546 25.6503 31.0866 26.1097 30.5507C27.8708 28.4833 27.9473 25.6503 27.9473 24.5018C29.0193 24.3486 31.1632 24.3486 32.1586 25.4972ZM25.88 37.2121C26.416 37.2121 26.7988 37.6715 26.7988 38.1309C26.7988 38.6669 26.3394 39.0497 25.88 39.0497C25.344 39.0497 24.8846 38.5903 24.8846 38.1309C24.9612 37.6715 25.344 37.2121 25.88 37.2121ZM21.1328 31.546C19.5249 31.3929 18.2232 30.7804 17.381 29.785C16.0793 28.2536 15.8496 26.0331 15.773 24.8846C17.5341 26.2628 19.5249 27.1051 21.4391 27.1051C23.047 27.1051 25.1143 26.3394 26.8754 24.9612C26.8754 26.1863 26.5691 28.3302 25.2675 29.8615C24.4252 30.7804 23.1236 31.3929 21.5156 31.546H21.1328ZM14.7011 4.28781H15.1605L15.237 3.8284C15.237 3.8284 15.773 1.07195 20.4437 1.07195C20.5202 1.07195 24.7315 1.30166 26.6457 2.14391C26.7223 2.14391 27.1817 2.37361 27.8708 2.37361C28.4068 2.37361 28.9427 2.29704 29.4021 2.06734C29.249 2.37361 28.9427 2.75645 28.5599 3.21586L27.7176 4.13468L28.9427 4.21124C29.0193 4.21124 31.4695 4.44095 31.2398 8.26935L30.9335 11.0258L29.6318 11.5618C29.3256 11.1789 28.8662 11.0258 28.6365 10.9492C28.0239 10.8727 27.4114 10.8727 26.6457 10.8727C25.344 10.8727 24.1189 11.0258 24.0424 11.0258C23.047 11.1789 22.3579 11.4852 22.0516 12.0978C22.0516 12.1743 22.0516 12.1743 21.975 12.2509H20.9797C20.9797 12.1743 20.9797 12.1743 20.9031 12.0978C20.5968 11.4852 19.9077 11.1024 18.9123 11.0258C18.8357 11.0258 17.6107 10.8727 16.309 10.8727C15.5433 10.8727 14.8542 10.9492 14.3948 11.0258C14.1651 11.1024 13.7057 11.2555 13.3994 11.6383L11.8681 11.0258C11.8681 10.7195 11.7915 10.4898 11.7915 10.2601C11.7915 10.0304 11.7915 9.72414 11.7915 9.3413C11.6383 6.73799 11.7915 4.44095 14.7011 4.28781ZM28.8662 13.3994L28.7896 13.9354C28.5599 15.3136 28.4833 15.5433 27.7942 15.6965C27.7942 15.6965 27.0285 15.8496 26.1097 15.8496C25.1143 15.8496 24.4252 15.6199 24.0424 15.3136C23.8892 15.0839 23.4298 14.2417 23.047 13.2463C23.047 13.2463 22.8939 12.8634 23.047 12.6337C23.2001 12.404 23.583 12.2509 24.1189 12.1743C24.1189 12.1743 25.344 12.0212 26.6457 12.0212C27.3348 12.0212 27.9473 12.0978 28.3302 12.1743C28.4068 12.0978 29.0959 12.2509 28.8662 13.3994ZM19.8311 13.3228C19.4483 14.3182 18.9889 15.1605 18.8357 15.3136C18.4529 15.6965 17.7638 15.8496 16.7684 15.8496C15.9262 15.8496 15.1605 15.6965 15.1605 15.6965C14.4714 15.4668 14.3948 15.237 14.1651 13.8588L14.0885 13.3228C13.9354 12.2509 14.4714 12.0978 14.6245 12.0212C15.0073 11.9446 15.6199 11.8681 16.309 11.8681C17.5341 11.8681 18.7592 12.0212 18.7592 12.0212C19.3717 12.0978 19.7546 12.2509 19.8311 12.4806C20.0608 12.8634 19.9077 13.2463 19.8311 13.3228ZM12.8634 16.845L12.6337 16.6918C11.9446 16.1559 10.2601 14.6245 10.3367 13.3228C10.3367 12.4806 10.643 12.4806 10.8727 12.4806C11.1789 12.4806 11.4852 12.3275 11.6383 12.1743L12.94 12.7103C12.8634 13.0166 12.8634 13.3228 12.94 13.7057L13.0166 14.2417C13.2463 15.6199 13.3994 16.5387 14.8542 16.9981C14.8542 16.9981 15.773 17.1512 16.7684 17.1512C18.1466 17.1512 19.142 16.845 19.7546 16.1559L19.8311 16.0793C19.8311 16.0027 20.5202 15.0073 20.9797 13.8588C20.9797 13.8588 21.0562 13.6291 21.1328 13.3994H21.975C22.0516 13.6291 22.1282 13.7823 22.1282 13.7823C22.5876 15.0073 23.2767 16.0027 23.2767 16.0793L23.3533 16.1559C23.9658 16.7684 24.9612 17.1512 26.3394 17.1512C27.3348 17.1512 28.1771 16.9981 28.2536 16.9215C29.7084 16.4621 29.8615 15.6199 30.0913 14.2417L30.1678 13.7057C30.2444 13.3228 30.2444 13.0166 30.1678 12.7103L31.3929 12.2509C31.546 12.3275 31.6992 12.404 31.8523 12.404H32.082C32.1586 12.404 32.2352 12.404 32.3117 12.404C32.4649 12.404 32.7711 12.404 32.7711 13.2463C32.7711 14.5479 31.0866 16.1559 30.4741 16.6153L30.2444 16.7684V17.0747C30.2444 19.6014 28.8662 21.975 27.0285 23.583C25.344 25.0378 23.2767 25.9566 21.6688 25.9566C17.8404 25.9566 13.1697 22.0516 13.0931 17.2278L12.8634 16.845ZM10.5664 25.4972C11.5618 24.3486 13.7057 24.3486 14.7011 24.4252C14.7011 25.6503 14.7776 28.4833 16.5387 30.4741C17.0747 31.1632 17.7638 31.6226 18.606 32.0055C17.9169 32.4649 17.381 33.154 17.0747 33.9197C12.0212 32.7711 10.3367 29.249 10.3367 29.1724C9.80071 27.4879 9.87728 26.2628 10.5664 25.4972ZM17.4575 38.5903C17.9935 38.5903 18.4529 39.0497 18.4529 39.5091C18.4529 40.0451 17.9935 40.4279 17.4575 40.4279C16.9215 40.4279 16.4621 39.9685 16.4621 39.5091C16.5387 38.9732 16.9215 38.5903 17.4575 38.5903ZM1.14852 42.8016V41.4999C1.14852 36.2933 4.51752 31.6992 9.41787 30.0147C10.0304 31.0866 12.0978 34.0728 16.845 35.1447V37.5184C15.9262 37.7481 15.3136 38.5903 15.3136 39.5091C15.3136 40.6576 16.2324 41.5765 17.4575 41.5765C18.6826 41.5765 19.6014 40.6576 19.6014 39.5091C19.6014 38.5137 18.9889 37.7481 18.0701 37.5184V34.9916C18.0701 33.69 19.0655 32.6946 20.3671 32.6946H21.1328C21.2094 32.6946 21.2859 32.6946 21.3625 32.6946H21.4391C21.5156 32.6946 21.5922 32.6946 21.6688 32.6946H23.1236C24.4252 32.6946 25.4206 33.69 25.4206 34.9916V36.1401C24.5018 36.3698 23.8892 37.2121 23.8892 38.1309C23.8892 39.2794 24.8081 40.1982 25.9566 40.1982C27.1051 40.1982 28.0239 39.2794 28.0239 38.1309C28.0239 37.1355 27.4114 36.3698 26.4926 36.1401V34.9916C30.8569 33.8431 32.7711 31.0101 33.3071 29.9381C34.915 30.3975 36.3698 31.2398 37.5949 32.3117C34.1494 33.6134 31.6226 36.9824 31.6226 40.8874C31.6226 41.4999 31.6992 42.189 31.8523 42.725H1.14852V42.8016ZM40.8874 48.927C36.4464 48.927 32.8477 45.3283 32.8477 40.8874C32.8477 36.4464 36.4464 32.8477 40.8874 32.8477C45.3283 32.8477 48.927 36.4464 48.927 40.8874C48.927 45.3283 45.3283 48.927 40.8874 48.927Z" fill="currentColor"/>
</svg>
