<svg width="44" height="50" viewBox="0 0 44 50" fill="none" xmlns="http://www.w3.org/2000/svg">
<path d="M21.9043 26.6602L8.62305 39.9414C7.70508 40.8594 6.2207 40.8594 5.3125 39.9414L3.10547 37.7344C2.1875 36.8164 2.1875 35.332 3.10547 34.4238L12.5195 25.0098L3.10547 15.5957C2.1875 14.6777 2.1875 13.1934 3.10547 12.2852L5.30273 10.0586C6.2207 9.14063 7.70508 9.14063 8.61328 10.0586L21.8945 23.3398C22.8223 24.2578 22.8223 25.7422 21.9043 26.6602ZM40.6543 23.3398L27.373 10.0586C26.4551 9.14063 24.9707 9.14063 24.0625 10.0586L21.8555 12.2656C20.9375 13.1836 20.9375 14.668 21.8555 15.5762L31.2695 24.9902L21.8555 34.4043C20.9375 35.3223 20.9375 36.8066 21.8555 37.7148L24.0625 39.9219C24.9805 40.8398 26.4648 40.8398 27.373 39.9219L40.6543 26.6406C41.5723 25.7422 41.5723 24.2578 40.6543 23.3398Z" fill="#37474F"/>
</svg>
