<svg width="63" height="50" viewBox="0 0 63 50" fill="none" xmlns="http://www.w3.org/2000/svg">
<g clip-path="url(#clip0)">
<path d="M52.5 22.1289C52.9004 21.084 53.125 19.9414 53.125 18.75C53.125 13.5742 48.9258 9.375 43.75 9.375C41.8262 9.375 40.0293 9.96094 38.5449 10.957C35.8398 6.26953 30.791 3.125 25 3.125C16.3672 3.125 9.375 10.1172 9.375 18.75C9.375 19.0137 9.38477 19.2773 9.39453 19.541C3.92578 21.4648 0 26.6797 0 32.8125C0 40.5762 6.29883 46.875 14.0625 46.875H50C56.9043 46.875 62.5 41.2793 62.5 34.375C62.5 28.3301 58.2031 23.2812 52.5 22.1289ZM38.418 28.125H32.0312V39.0625C32.0312 39.9219 31.3281 40.625 30.4688 40.625H25.7812C24.9219 40.625 24.2188 39.9219 24.2188 39.0625V28.125H17.832C16.4355 28.125 15.7422 26.4453 16.7285 25.459L27.0215 15.166C27.627 14.5605 28.623 14.5605 29.2285 15.166L39.5215 25.459C40.5078 26.4453 39.8047 28.125 38.418 28.125Z" fill="#37474F"/>
</g>
<defs>
<clipPath id="clip0">
<rect width="62.5" height="50" fill="white"/>
</clipPath>
</defs>
</svg>
