<svg width="62" height="61" viewBox="0 0 62 61" fill="none" xmlns="http://www.w3.org/2000/svg">
<path d="M33.2502 11.0546L2.14722 30.6346C0.682223 31.5206 -0.0337766 32.5126 0.00122339 33.6116V36.5916C0.0362234 37.6916 0.769223 38.6666 2.20122 39.5176L17.5942 48.4026C17.6856 48.4561 17.7876 48.489 17.8931 48.4989C17.9985 48.5088 18.1048 48.4955 18.2046 48.4599C18.3043 48.4244 18.3951 48.3675 18.4706 48.2931C18.546 48.2188 18.6042 48.1289 18.6412 48.0296L22.0972 39.6776L14.7672 35.5276C14.5559 35.418 14.3783 35.2532 14.2532 35.0506C14.1595 34.8984 14.0971 34.729 14.0696 34.5524C14.042 34.3758 14.05 34.1955 14.0929 34.022C14.1358 33.8484 14.2128 33.6852 14.3195 33.5418C14.4262 33.3984 14.5604 33.2776 14.7142 33.1866L28.1712 24.9396L33.7202 11.4276C33.7424 11.3643 33.7444 11.2957 33.726 11.2312C33.7076 11.1668 33.6695 11.1096 33.6172 11.0676C33.5652 11.0262 33.5013 11.0025 33.4349 11.0002C33.3684 10.9979 33.303 11.0169 33.2482 11.0546H33.2502Z" fill="#37474F"/>
<path d="M58.8002 21.9616L43.6182 12.7576C43.5302 12.7027 43.4314 12.6674 43.3286 12.6539C43.2257 12.6404 43.1211 12.6491 43.0219 12.6794C42.9227 12.7097 42.8312 12.761 42.7534 12.8297C42.6757 12.8984 42.6136 12.9829 42.5712 13.0776L39.0112 21.4296L46.2362 25.7396C46.4442 25.8526 46.6172 26.0216 46.7382 26.2276C46.8595 26.4343 46.9234 26.6696 46.9234 26.9091C46.9234 27.1487 46.8595 27.384 46.7382 27.5906C46.6183 27.7963 46.4448 27.9657 46.2362 28.0806L32.6752 36.0606L26.9152 49.4676C26.8595 49.5313 26.8309 49.6144 26.8358 49.699C26.8407 49.7835 26.8785 49.8627 26.9412 49.9196C26.972 49.9476 27.008 49.969 27.0471 49.9829C27.0863 49.9967 27.1278 50.0026 27.1692 50.0001C27.2107 49.9977 27.2512 49.9871 27.2885 49.9688C27.3257 49.9505 27.359 49.9249 27.3862 49.8936L37.3352 43.8816L41.2622 49.5216C41.3481 49.6516 41.4646 49.7583 41.6015 49.8324C41.7385 49.9066 41.8915 49.9458 42.0472 49.9466H51.4722C51.6441 49.9472 51.8128 49.9002 51.9596 49.8109C52.1064 49.7216 52.2257 49.5935 52.3042 49.4406C52.385 49.2874 52.4232 49.1153 52.415 48.9422C52.4067 48.7692 52.3522 48.6015 52.2572 48.4566L45.8692 38.6666L58.8022 30.8466C60.2682 29.9596 61.0012 28.9666 61.0012 27.8666V24.9406C61.0012 23.8406 60.2682 22.8486 58.8012 21.9616H58.8002Z" fill="#37474F"/>
</svg>
