<svg width="50" height="50" viewBox="0 0 50 50" fill="none" xmlns="http://www.w3.org/2000/svg">
<path d="M25 0.78125C11.6243 0.78125 0.78125 11.6243 0.78125 25C0.78125 38.3757 11.6243 49.2188 25 49.2188C38.3757 49.2188 49.2188 38.3757 49.2188 25C49.2188 11.6243 38.3757 0.78125 25 0.78125ZM36.4389 34.6438C36.2834 34.8262 32.5545 39.1098 25.7112 39.1098C17.4405 39.1098 11.6015 32.932 11.6015 24.8942C11.6015 16.9545 17.6565 10.8902 25.6407 10.8902C32.1795 10.8902 35.5982 14.5343 35.7405 14.6895C35.9159 14.8806 36.0228 15.1244 36.0447 15.3828C36.0666 15.6413 36.0021 15.8996 35.8614 16.1175L33.6759 19.5018C33.2805 20.1138 32.4284 20.2196 31.8952 19.7259C31.8725 19.705 29.3045 17.3938 25.8522 17.3938C21.3487 17.3938 18.6339 20.6727 18.6339 24.8237C18.6339 28.6911 21.1255 32.6062 25.8875 32.6062C29.6665 32.6062 32.2625 29.8388 32.2883 29.8107C32.7895 29.2673 33.6612 29.3192 34.0957 29.9136L36.4929 33.1921C36.6484 33.4049 36.7277 33.6639 36.7179 33.9273C36.7081 34.1908 36.6098 34.4432 36.4389 34.6438Z" fill="#37474F"/>
</svg>
