<svg width="44" height="50" viewBox="0 0 44 50" fill="none" xmlns="http://www.w3.org/2000/svg">
<g clip-path="url(#clip0)">
<path d="M43.75 7.14287V11.6071C43.75 15.5413 33.9519 18.75 21.875 18.75C9.79814 18.75 0 15.5413 0 11.6071V7.14287C0 3.20869 9.79814 0 21.875 0C33.9519 0 43.75 3.20869 43.75 7.14287ZM43.75 17.1875V27.2321C43.75 31.1663 33.9519 34.375 21.875 34.375C9.79814 34.375 0 31.1663 0 27.2321V17.1875C4.69971 20.4241 13.3016 21.9309 21.875 21.9309C30.4484 21.9309 39.0502 20.4241 43.75 17.1875ZM43.75 32.8125V42.8571C43.75 46.7913 33.9519 50 21.875 50C9.79814 50 0 46.7913 0 42.8571V32.8125C4.69971 36.0491 13.3016 37.5559 21.875 37.5559C30.4484 37.5559 39.0502 36.0491 43.75 32.8125Z" fill="#37474F"/>
</g>
<defs>
<clipPath id="clip0">
<rect width="43.75" height="50" fill="white"/>
</clipPath>
</defs>
</svg>
