<svg width="50" height="50" viewBox="0 0 50 50" fill="none" xmlns="http://www.w3.org/2000/svg">
<path d="M45.3125 6.25H4.6875C2.09863 6.25 0 8.34863 0 10.9375V39.0625C0 41.6514 2.09863 43.75 4.6875 43.75H45.3125C47.9014 43.75 50 41.6514 50 39.0625V10.9375C50 8.34863 47.9014 6.25 45.3125 6.25ZM45.3125 10.9375V14.9224C43.1229 16.7055 39.632 19.4781 32.1692 25.3218C30.5246 26.6154 27.2668 29.7233 25 29.6871C22.7336 29.7237 19.4747 26.6149 17.8308 25.3218C10.3691 19.479 6.87744 16.7058 4.6875 14.9224V10.9375H45.3125ZM4.6875 39.0625V20.9373C6.9252 22.7196 10.0985 25.2207 14.9354 29.0082C17.0698 30.6884 20.8078 34.3975 25 34.3749C29.1716 34.3975 32.8622 30.7422 35.0638 29.009C39.9005 25.2216 43.0747 22.7198 45.3125 20.9374V39.0625H4.6875Z" fill="#37474F"/>
</svg>
