<svg width="38" height="50" viewBox="0 0 38 50" fill="none" xmlns="http://www.w3.org/2000/svg">
<path d="M27.0508 16.6699C29.2614 16.6699 31.3814 15.7918 32.9445 14.2287C34.5076 12.6656 35.3857 10.5455 35.3857 8.33496C35.3857 6.12439 34.5076 4.00436 32.9445 2.44125C31.3814 0.878145 29.2614 0 27.0508 0L10.3809 0C8.17159 0 6.0528 0.877631 4.49061 2.43982C2.92841 4.00202 2.05078 6.1208 2.05078 8.33008C2.05078 10.5394 2.92841 12.6581 4.49061 14.2203C6.0528 15.7825 8.17159 16.6602 10.3809 16.6602C8.17029 16.6602 6.05026 17.5383 4.48715 19.1014C2.92405 20.6645 2.0459 22.7845 2.0459 24.9951C2.0459 27.2057 2.92405 29.3257 4.48715 30.8888C6.05026 32.4519 8.17029 33.3301 10.3809 33.3301C8.73236 33.3291 7.1206 33.817 5.74938 34.7321C4.37817 35.6471 3.3091 36.9482 2.67735 38.4709C2.0456 39.9935 1.87956 41.6693 2.20022 43.2863C2.52088 44.9033 3.31384 46.3889 4.47882 47.5553C5.6438 48.7216 7.12849 49.5163 8.74512 49.8389C10.3618 50.1614 12.0377 49.9974 13.5611 49.3674C15.0845 48.7374 16.3869 47.6699 17.3035 46.2998C18.2202 44.9296 18.71 43.3184 18.7109 41.6699V16.6699H27.0508ZM27.0508 16.6699C25.4033 16.6699 23.7927 17.1585 22.4228 18.0738C21.053 18.9891 19.9853 20.2901 19.3548 21.8122C18.7243 23.3343 18.5593 25.0092 18.8808 26.6251C19.2022 28.241 19.9955 29.7253 21.1605 30.8903C22.3255 32.0552 23.8098 32.8486 25.4257 33.17C27.0415 33.4914 28.7164 33.3265 30.2386 32.696C31.7607 32.0655 33.0617 30.9978 33.977 29.6279C34.8923 28.2581 35.3809 26.6475 35.3809 25C35.3806 22.7908 34.5029 20.6722 32.9408 19.11C31.3786 17.5479 29.26 16.6702 27.0508 16.6699Z" fill="#37474F"/>
</svg>
