<svg width="49" height="50" viewBox="0 0 49 50" fill="none" xmlns="http://www.w3.org/2000/svg">
<g clip-path="url(#clip0)">
<path d="M16.2012 38.8086C16.2012 39.0039 15.9766 39.1602 15.6934 39.1602C15.3711 39.1895 15.1465 39.0332 15.1465 38.8086C15.1465 38.6133 15.3711 38.457 15.6543 38.457C15.9473 38.4277 16.2012 38.584 16.2012 38.8086ZM13.1641 38.3691C13.0957 38.5645 13.291 38.7891 13.584 38.8477C13.8379 38.9453 14.1309 38.8477 14.1895 38.6523C14.248 38.457 14.0625 38.2324 13.7695 38.1445C13.5156 38.0762 13.2324 38.1738 13.1641 38.3691ZM17.4805 38.2031C17.1973 38.2715 17.002 38.457 17.0312 38.6816C17.0605 38.877 17.3145 39.0039 17.6074 38.9355C17.8906 38.8672 18.0859 38.6816 18.0566 38.4863C18.0273 38.3008 17.7637 38.1738 17.4805 38.2031ZM23.9062 0.78125C10.3613 0.78125 0 11.0645 0 24.6094C0 35.4395 6.81641 44.707 16.5527 47.9688C17.8027 48.1934 18.2422 47.4219 18.2422 46.7871C18.2422 46.1816 18.2129 42.8418 18.2129 40.791C18.2129 40.791 11.377 42.2559 9.94141 37.8809C9.94141 37.8809 8.82812 35.0391 7.22656 34.3066C7.22656 34.3066 4.99023 32.7734 7.38281 32.8027C7.38281 32.8027 9.81445 32.998 11.1523 35.3223C13.291 39.0918 16.875 38.0078 18.2715 37.3633C18.4961 35.8008 19.1309 34.7168 19.834 34.0723C14.375 33.4668 8.86719 32.6758 8.86719 23.2812C8.86719 20.5957 9.60938 19.248 11.1719 17.5293C10.918 16.8945 10.0879 14.2773 11.4258 10.8984C13.4668 10.2637 18.1641 13.5352 18.1641 13.5352C20.1172 12.9883 22.2168 12.7051 24.2969 12.7051C26.377 12.7051 28.4766 12.9883 30.4297 13.5352C30.4297 13.5352 35.127 10.2539 37.168 10.8984C38.5059 14.2871 37.6758 16.8945 37.4219 17.5293C38.9844 19.2578 39.9414 20.6055 39.9414 23.2812C39.9414 32.7051 34.1895 33.457 28.7305 34.0723C29.6289 34.8438 30.3906 36.3086 30.3906 38.6035C30.3906 41.8945 30.3613 45.9668 30.3613 46.7676C30.3613 47.4023 30.8105 48.1738 32.0508 47.9492C41.8164 44.707 48.4375 35.4395 48.4375 24.6094C48.4375 11.0645 37.4512 0.78125 23.9062 0.78125ZM9.49219 34.4629C9.36523 34.5605 9.39453 34.7852 9.56055 34.9707C9.7168 35.127 9.94141 35.1953 10.0684 35.0684C10.1953 34.9707 10.166 34.7461 10 34.5605C9.84375 34.4043 9.61914 34.3359 9.49219 34.4629ZM8.4375 33.6719C8.36914 33.7988 8.4668 33.9551 8.66211 34.0527C8.81836 34.1504 9.01367 34.1211 9.08203 33.9844C9.15039 33.8574 9.05273 33.7012 8.85742 33.6035C8.66211 33.5449 8.50586 33.5742 8.4375 33.6719ZM11.6016 37.1484C11.4453 37.2754 11.5039 37.5684 11.7285 37.7539C11.9531 37.9785 12.2363 38.0078 12.3633 37.8516C12.4902 37.7246 12.4316 37.4316 12.2363 37.2461C12.0215 37.0215 11.7285 36.9922 11.6016 37.1484ZM10.4883 35.7129C10.332 35.8105 10.332 36.0645 10.4883 36.2891C10.6445 36.5137 10.9082 36.6113 11.0352 36.5137C11.1914 36.3867 11.1914 36.1328 11.0352 35.9082C10.8984 35.6836 10.6445 35.5859 10.4883 35.7129Z" fill="#37474F"/>
</g>
<defs>
<clipPath id="clip0">
<rect width="48.4375" height="50" fill="white"/>
</clipPath>
</defs>
</svg>
