<svg width="50" height="50" viewBox="0 0 50 50" fill="none" xmlns="http://www.w3.org/2000/svg">
<path d="M17.2012 39.0273C17.2012 39.2227 16.9766 39.3789 16.6934 39.3789C16.3711 39.4082 16.1465 39.252 16.1465 39.0273C16.1465 38.832 16.3711 38.6758 16.6543 38.6758C16.9473 38.6465 17.2012 38.8027 17.2012 39.0273ZM14.1641 38.5879C14.0957 38.7832 14.291 39.0078 14.584 39.0664C14.8379 39.1641 15.1309 39.0664 15.1895 38.8711C15.248 38.6758 15.0625 38.4512 14.7695 38.3633C14.5156 38.2949 14.2324 38.3926 14.1641 38.5879ZM18.4805 38.4219C18.1973 38.4902 18.002 38.6758 18.0312 38.9004C18.0605 39.0957 18.3145 39.2227 18.6074 39.1543C18.8906 39.0859 19.0859 38.9004 19.0566 38.7051C19.0273 38.5195 18.7637 38.3926 18.4805 38.4219ZM24.9063 1C11.3613 1 1 11.2832 1 24.8281C1 35.6582 7.81641 44.9258 17.5527 48.1875C18.8027 48.4121 19.2422 47.6406 19.2422 47.0059C19.2422 46.4004 19.2129 43.0605 19.2129 41.0098C19.2129 41.0098 12.377 42.4746 10.9414 38.0996C10.9414 38.0996 9.82812 35.2578 8.22656 34.5254C8.22656 34.5254 5.99023 32.9922 8.38281 33.0215C8.38281 33.0215 10.8145 33.2168 12.1523 35.541C14.291 39.3105 17.875 38.2266 19.2715 37.582C19.4961 36.0195 20.1309 34.9355 20.834 34.291C15.375 33.6855 9.86719 32.8945 9.86719 23.5C9.86719 20.8145 10.6094 19.4668 12.1719 17.748C11.918 17.1133 11.0879 14.4961 12.4258 11.1172C14.4668 10.4824 19.1641 13.7539 19.1641 13.7539C21.1172 13.207 23.2168 12.9238 25.2969 12.9238C27.377 12.9238 29.4766 13.207 31.4297 13.7539C31.4297 13.7539 36.127 10.4727 38.168 11.1172C39.5059 14.5059 38.6758 17.1133 38.4219 17.748C39.9844 19.4766 40.9414 20.8242 40.9414 23.5C40.9414 32.9238 35.1895 33.6758 29.7305 34.291C30.6289 35.0625 31.3906 36.5273 31.3906 38.8223C31.3906 42.1133 31.3613 46.1855 31.3613 46.9863C31.3613 47.6211 31.8105 48.3926 33.0508 48.168C42.8164 44.9258 49.4375 35.6582 49.4375 24.8281C49.4375 11.2832 38.4512 1 24.9063 1ZM10.4922 34.6816C10.3652 34.7793 10.3945 35.0039 10.5605 35.1895C10.7168 35.3457 10.9414 35.4141 11.0684 35.2871C11.1953 35.1895 11.166 34.9648 11 34.7793C10.8438 34.623 10.6191 34.5547 10.4922 34.6816ZM9.4375 33.8906C9.36914 34.0176 9.4668 34.1738 9.66211 34.2715C9.81836 34.3691 10.0137 34.3398 10.082 34.2031C10.1504 34.0762 10.0527 33.9199 9.85742 33.8223C9.66211 33.7637 9.50586 33.793 9.4375 33.8906ZM12.6016 37.3672C12.4453 37.4941 12.5039 37.7871 12.7285 37.9727C12.9531 38.1973 13.2363 38.2266 13.3633 38.0703C13.4902 37.9434 13.4316 37.6504 13.2363 37.4648C13.0215 37.2402 12.7285 37.2109 12.6016 37.3672ZM11.4883 35.9316C11.332 36.0293 11.332 36.2832 11.4883 36.5078C11.6445 36.7324 11.9082 36.8301 12.0352 36.7324C12.1914 36.6055 12.1914 36.3516 12.0352 36.127C11.8984 35.9023 11.6445 35.8047 11.4883 35.9316Z" fill="currentColor"/>
</svg>
