<svg width="33" height="34" viewBox="0 0 33 34" fill="none" xmlns="http://www.w3.org/2000/svg">
<g clip-path="url(#clip0)">
<path d="M11.0168 26.3898C11.0168 26.5227 10.8641 26.6289 10.6715 26.6289C10.4523 26.6488 10.2996 26.5426 10.2996 26.3898C10.2996 26.257 10.4523 26.1508 10.6449 26.1508C10.8441 26.1309 11.0168 26.2371 11.0168 26.3898ZM8.95156 26.091C8.90508 26.2238 9.03789 26.3766 9.23711 26.4164C9.40977 26.4828 9.60898 26.4164 9.64883 26.2836C9.68867 26.1508 9.5625 25.998 9.36328 25.9383C9.19063 25.8918 8.99805 25.9582 8.95156 26.091ZM11.8867 25.9781C11.6941 26.0246 11.5613 26.1508 11.5812 26.3035C11.6012 26.4363 11.7738 26.5227 11.973 26.4762C12.1656 26.4297 12.2984 26.3035 12.2785 26.1707C12.2586 26.0445 12.0793 25.9582 11.8867 25.9781ZM16.2563 0.53125C7.0457 0.53125 0 7.52383 0 16.7344C0 24.0988 4.63516 30.4008 11.2559 32.6188C12.1059 32.7715 12.4047 32.2469 12.4047 31.8152C12.4047 31.4035 12.3848 29.1324 12.3848 27.7379C12.3848 27.7379 7.73633 28.734 6.76016 25.759C6.76016 25.759 6.00313 23.8266 4.91406 23.3285C4.91406 23.3285 3.39336 22.2859 5.02031 22.3059C5.02031 22.3059 6.67383 22.4387 7.58359 24.0191C9.03789 26.5824 11.475 25.8453 12.4246 25.407C12.5773 24.3445 13.009 23.6074 13.4871 23.1691C9.775 22.7574 6.02969 22.2195 6.02969 15.8312C6.02969 14.0051 6.53438 13.0887 7.59688 11.9199C7.42422 11.4883 6.85977 9.70859 7.76953 7.41094C9.15742 6.9793 12.3516 9.20391 12.3516 9.20391C13.6797 8.83203 15.1074 8.63945 16.5219 8.63945C17.9363 8.63945 19.3641 8.83203 20.6922 9.20391C20.6922 9.20391 23.8863 6.97266 25.2742 7.41094C26.184 9.71523 25.6195 11.4883 25.4469 11.9199C26.5094 13.0953 27.1602 14.0117 27.1602 15.8312C27.1602 22.2395 23.2488 22.7508 19.5367 23.1691C20.1477 23.6938 20.6656 24.6898 20.6656 26.2504C20.6656 28.4883 20.6457 31.2574 20.6457 31.802C20.6457 32.2336 20.9512 32.7582 21.7945 32.6055C28.4352 30.4008 32.9375 24.0988 32.9375 16.7344C32.9375 7.52383 25.4668 0.53125 16.2563 0.53125ZM6.45469 23.4348C6.36836 23.5012 6.38828 23.6539 6.50117 23.7801C6.60742 23.8863 6.76016 23.9328 6.84648 23.8465C6.93281 23.7801 6.91289 23.6273 6.8 23.5012C6.69375 23.3949 6.54102 23.3484 6.45469 23.4348ZM5.7375 22.8969C5.69102 22.9832 5.75742 23.0895 5.89023 23.1559C5.99648 23.2223 6.1293 23.2023 6.17578 23.1094C6.22227 23.023 6.15586 22.9168 6.02305 22.8504C5.89023 22.8105 5.78398 22.8305 5.7375 22.8969ZM7.88906 25.2609C7.78281 25.3473 7.82266 25.5465 7.97539 25.6727C8.12813 25.8254 8.3207 25.8453 8.40703 25.7391C8.49336 25.6527 8.45352 25.4535 8.3207 25.3273C8.17461 25.1746 7.97539 25.1547 7.88906 25.2609ZM7.13203 24.2848C7.02578 24.3512 7.02578 24.5238 7.13203 24.6766C7.23828 24.8293 7.41758 24.8957 7.50391 24.8293C7.61016 24.743 7.61016 24.5703 7.50391 24.4176C7.41094 24.2648 7.23828 24.1984 7.13203 24.2848Z" fill="#37474F"/>
</g>
<defs>
<clipPath id="clip0">
<rect width="32.9375" height="34" fill="white"/>
</clipPath>
</defs>
</svg>
