<svg width="25" height="50" viewBox="0 0 25 50" fill="none" xmlns="http://www.w3.org/2000/svg">
<path d="M20.4883 38.1933L19.1113 40.5957L18.6621 48.4277C18.6621 49.2969 15.8984 50 12.5 50C9.10156 50 6.33789 49.2969 6.33789 48.4277L5.77148 40.6738L4.31641 38.1933C8.33984 39.8828 16.6211 39.8242 20.4883 38.1933ZM1.34766 13.457L2.67578 25.7129C3.25195 23.7598 4.70703 21.123 6.58203 20.3223C7.19727 20.0586 7.82227 20.0586 8.4082 20.4101C8.91602 20.7031 9.3457 21.3183 9.39453 21.5625C9.51172 22.1973 9.19922 22.4512 8.95508 22.4512C8.66211 22.4512 8.4375 22.0019 8.29102 21.7383C7.89062 21.0254 7.28516 20.9961 6.64062 21.4648C5.9668 21.9531 5.38086 22.7734 4.9707 23.4863C4.47266 24.3457 4.05273 25.293 3.79883 26.2402C3.65234 26.7871 3.51562 27.666 3.74023 28.1836C3.83789 28.3984 3.98438 28.5351 4.21875 28.5351C4.70703 28.5351 5.41992 27.8906 5.76172 27.5488C6.20117 27.1094 6.76758 26.4258 6.98242 25.9863L7.49023 24.4726C7.74414 23.8086 8.45703 23.9258 8.45703 24.4726C8.45703 25.4687 8.0957 25.8008 7.48047 27.8613C6.91406 29.7656 6.73828 30.3808 6.73828 30.3808C6.66992 30.6543 6.40625 31.1133 6.12305 31.1133C6.00586 31.1133 5.91797 31.0742 5.86914 30.9961C5.77148 30.8594 5.78125 30.4785 5.79102 30.3808C5.81055 30.0683 6.40625 28.2129 6.50391 27.9199C6.30859 28.1348 6.10352 28.3496 5.87891 28.5644C5.35156 29.0625 4.50195 29.7168 3.7793 29.7168C3.44727 29.7168 3.23242 29.6289 3.02734 29.4824L3.76953 37.2558C3.96484 37.7441 7.59766 38.9258 12.3828 38.9258C17.1777 38.9258 20.8105 37.7344 20.9961 37.2558L22.0605 28.0176C21.5039 28.5254 20.8594 29.1504 20.1465 29.4629C19.6191 29.6875 18.4473 29.834 18.4473 28.9062C18.4473 28.3984 19.3359 27.4609 19.8535 26.8066C19.9902 26.6406 20.3125 26.2305 20.3125 26.0156C20.3125 25.7324 19.7266 25.8008 19.1699 26.2598C18.8574 26.5234 18.5645 26.875 18.3203 27.207C17.9004 27.793 17.6758 28.3008 17.4902 28.7207C16.8848 30.1074 17.0898 29.5605 16.6016 30.8691C16.1133 32.168 16.1914 32.0215 16.0938 32.2363C16.0059 32.4219 15.8789 32.5781 15.7031 32.6758C15.5176 32.7734 15.2637 32.7637 15.1074 32.6465C15.0195 32.5879 14.9805 32.4609 14.9805 32.2851C14.9805 32.1973 14.9902 32.1094 15.0098 32.0215C15.1562 31.4258 15.7715 30.2539 16.4746 28.6719C16.6309 28.3105 16.5723 28.418 16.5527 28.4473C15.9473 29.0332 15.4883 29.3164 15.1465 29.4726C14.5801 29.7265 13.877 29.7265 13.7305 29.0723C13.7207 29.0332 13.7207 28.9941 13.7109 28.9551C12.5586 29.8535 11.3379 30.0976 11.7578 28.164C11.3086 28.9648 10.5273 29.6191 9.57031 29.6191C9.16992 29.6191 8.87695 29.4824 8.73047 29.1211C8.50586 28.584 8.85742 27.666 9.17969 26.7969C9.3457 26.3574 9.57031 25.8301 9.87305 25.2148C10.0293 24.8828 10.2832 24.6875 10.6152 24.7754C10.6738 24.7949 10.7227 24.8144 10.7715 24.8437C11.0254 25.0195 10.9277 25.2832 10.8008 25.5469C10.4297 26.2793 10.1074 26.8164 9.89258 27.5781C9.80469 27.9004 9.69727 28.457 10.0391 28.457C10.2734 28.457 10.498 28.3789 10.7129 28.2226C11.1621 27.8906 11.5234 27.3926 11.7969 26.9043C11.9922 26.5527 12.2266 26.0937 12.3438 25.7031C12.3926 25.5371 12.4512 25.3808 12.5195 25.2344C12.627 24.9902 12.7734 24.7363 13.0273 24.7363C13.1543 24.7363 13.2617 24.7851 13.3398 24.8828C13.5059 25.0976 13.4668 25.3223 13.3789 25.5566C13.1836 26.1035 12.9199 26.5918 12.7051 27.1875C12.5781 27.5293 12.4414 27.9687 12.4414 28.3301C12.4414 28.6621 12.8027 28.584 13.1055 28.4473C13.3398 28.3398 13.5742 28.1738 13.7695 28.0078C13.8867 27.5293 13.8574 27.6367 16.3477 21.3476C16.4746 21.0254 16.709 20.8887 16.9434 20.8887C17.0605 20.8887 17.1582 20.9277 17.2559 20.9961C17.4219 21.123 17.4219 21.3965 17.3535 21.6015C17.2852 21.7871 17.2949 21.7285 16.9141 22.6269C16.4062 23.8086 16.0742 24.6582 15.625 25.7422C15.4395 26.1914 14.873 27.5879 14.7754 27.9199C14.7168 28.1348 14.6484 28.4863 14.873 28.4863C15.4004 28.4863 16.7578 27.207 17.1289 26.8262C17.1484 26.7969 17.1777 26.7871 17.2168 26.7676C17.2754 26.582 17.334 26.4062 17.3828 26.2305C17.5195 25.8594 17.6465 25.4297 17.9004 25.1269C17.9785 25.0293 18.0664 24.9707 18.1641 24.9707C18.4375 24.9707 18.5742 25.0879 18.5742 25.3613C18.5742 25.4687 18.5059 25.8594 18.4668 25.9668C18.6035 25.8203 18.75 25.6738 18.9062 25.5273C20.3711 24.1699 21.416 24.8633 21.416 25.5469C21.416 26.2695 20.5469 27.2754 20.0684 27.832C19.9121 28.0176 19.5898 28.3594 19.5801 28.457C19.5801 28.584 19.668 28.6328 19.7949 28.6328C19.9902 28.6328 20.4199 28.291 20.5762 28.1738C21.0645 27.793 21.7285 27.207 22.1973 26.7969L23.6426 13.4375C20.6641 15.1074 4.3457 15.1172 1.34766 13.457ZM23.7793 12.6269C23.7793 14.6777 1.20117 14.6777 1.20117 12.6269C1.20117 11.7676 6.25977 11.0742 12.4902 11.0742C13.3691 11.0742 14.2285 11.084 15.0586 11.1133L16.2891 6.35741L22.2754 0.0585792C22.4121 -0.0781395 22.8418 0.039048 23.2422 0.400376C23.6426 0.761704 23.8867 1.17186 23.7598 1.30858L23.75 1.31834L18.1543 7.22655L17.1777 11.2012C21.0742 11.4551 23.7793 11.9922 23.7793 12.6269ZM17.002 13.0762C17.002 12.998 16.9141 12.9297 16.7578 12.8711L16.7383 12.9492C16.7383 13.0762 16.25 13.1836 15.6543 13.1836C15.0586 13.1836 14.5703 13.0762 14.5703 12.9492C14.5703 12.9394 14.5703 12.9297 14.5801 12.9199L14.5996 12.8515C14.4238 12.9101 14.3066 12.9883 14.3066 13.0762C14.3066 13.2812 14.9121 13.4375 15.6445 13.4375C16.3965 13.4473 17.002 13.2812 17.002 13.0762Z" fill="#37474F"/>
</svg>
