<svg width="50" height="50" viewBox="0 0 50 50" fill="none" xmlns="http://www.w3.org/2000/svg">
<rect width="50" height="50" rx="25" fill="#37474F"/>
<mask id="path-2-inside-1" fill="white">
<path d="M39.1468 33.7584L38.5581 34.3471L39.8425 35.578L38.5581 36.8624L39.1468 37.4511L41.0199 35.578L39.1468 33.7584Z"/>
</mask>
<path d="M39.1468 33.7584L38.5581 34.3471L39.8425 35.578L38.5581 36.8624L39.1468 37.4511L41.0199 35.578L39.1468 33.7584Z" fill="#37474F"/>
<path d="M39.1468 33.7584L39.8436 33.0411L39.1366 32.3544L38.4397 33.0513L39.1468 33.7584ZM38.5581 34.3471L37.851 33.64L37.1287 34.3623L37.8662 35.0691L38.5581 34.3471ZM39.8425 35.578L40.5496 36.2851L41.2719 35.5628L40.5344 34.856L39.8425 35.578ZM38.5581 36.8624L37.851 36.1553L37.1439 36.8624L37.851 37.5695L38.5581 36.8624ZM39.1468 37.4511L38.4397 38.1582L39.1468 38.8653L39.8539 38.1582L39.1468 37.4511ZM41.0199 35.578L41.727 36.2851L42.4444 35.5677L41.7167 34.8607L41.0199 35.578ZM38.4397 33.0513L37.851 33.64L39.2652 35.0542L39.8539 34.4655L38.4397 33.0513ZM37.8662 35.0691L39.1506 36.3L40.5344 34.856L39.25 33.6251L37.8662 35.0691ZM39.1354 34.8709L37.851 36.1553L39.2652 37.5695L40.5496 36.2851L39.1354 34.8709ZM37.851 37.5695L38.4397 38.1582L39.8539 36.744L39.2652 36.1553L37.851 37.5695ZM39.8539 38.1582L41.727 36.2851L40.3128 34.8709L38.4397 36.744L39.8539 38.1582ZM41.7167 34.8607L39.8436 33.0411L38.45 34.4757L40.3231 36.2953L41.7167 34.8607Z" fill="white" mask="url(#path-2-inside-1)"/>
<mask id="path-4-inside-2" fill="white">
<path d="M33.9557 33.7584L32.1361 35.578L33.9557 37.4511L34.5444 36.8624L33.26 35.578L34.5444 34.3471L33.9557 33.7584Z"/>
</mask>
<path d="M33.9557 33.7584L32.1361 35.578L33.9557 37.4511L34.5444 36.8624L33.26 35.578L34.5444 34.3471L33.9557 33.7584Z" fill="#37474F"/>
<path d="M33.9557 33.7584L34.6628 33.0513L33.9557 32.3442L33.2486 33.0513L33.9557 33.7584ZM32.1361 35.578L31.429 34.8709L30.7321 35.5678L31.4188 36.2748L32.1361 35.578ZM33.9557 37.4511L33.2384 38.1479L33.9454 38.8756L34.6628 38.1582L33.9557 37.4511ZM34.5444 36.8624L35.2515 37.5695L35.9586 36.8624L35.2515 36.1553L34.5444 36.8624ZM33.26 35.578L32.5681 34.856L31.8305 35.5628L32.5529 36.2851L33.26 35.578ZM34.5444 34.3471L35.2363 35.0691L35.9738 34.3623L35.2515 33.64L34.5444 34.3471ZM33.2486 33.0513L31.429 34.8709L32.8432 36.2851L34.6628 34.4655L33.2486 33.0513ZM31.4188 36.2748L33.2384 38.1479L34.673 36.7543L32.8534 34.8812L31.4188 36.2748ZM34.6628 38.1582L35.2515 37.5695L33.8373 36.1553L33.2486 36.744L34.6628 38.1582ZM35.2515 36.1553L33.9671 34.8709L32.5529 36.2851L33.8373 37.5695L35.2515 36.1553ZM33.9519 36.3L35.2363 35.0691L33.8525 33.6251L32.5681 34.856L33.9519 36.3ZM35.2515 33.64L34.6628 33.0513L33.2486 34.4655L33.8373 35.0542L35.2515 33.64Z" fill="white" mask="url(#path-4-inside-2)"/>
<mask id="path-6-inside-3" fill="white">
<path d="M34.6753 38.5048L35.3948 38.8609L38.4335 32.7218L37.7141 32.3657L34.6753 38.5048Z"/>
</mask>
<path d="M34.6753 38.5048L35.3948 38.8609L38.4335 32.7218L37.7141 32.3657L34.6753 38.5048Z" fill="#37474F"/>
<path d="M35.3948 38.8609L34.9512 39.7572L35.8474 40.2008L36.291 39.3045L35.3948 38.8609ZM34.6753 38.5048L33.7791 38.0612L33.3355 38.9574L34.2317 39.4011L34.6753 38.5048ZM37.7141 32.3657L38.1577 31.4695L37.2615 31.0259L36.8179 31.9221L37.7141 32.3657ZM38.4335 32.7218L39.3297 33.1654L39.7733 32.2692L38.8771 31.8256L38.4335 32.7218ZM35.8384 37.9647L35.119 37.6086L34.2317 39.4011L34.9512 39.7572L35.8384 37.9647ZM35.5716 38.9484L38.6103 32.8093L36.8179 31.9221L33.7791 38.0612L35.5716 38.9484ZM37.2705 33.2619L37.9899 33.618L38.8771 31.8256L38.1577 31.4695L37.2705 33.2619ZM37.5373 32.2782L34.4986 38.4173L36.291 39.3045L39.3297 33.1654L37.5373 32.2782Z" fill="white" mask="url(#path-6-inside-3)"/>
<mask id="path-8-inside-4" fill="white">
<path d="M36.578 29.156C36.0963 29.156 35.6682 29.2095 35.1865 29.3165C34.1697 28.2997 32.9388 27.604 31.5474 27.1758C31.815 25.945 31.708 24.9817 31.0658 24.2859C30.263 23.3761 28.9251 23.2156 28.0153 23.2691C29.0321 22.1453 29.7813 20.7003 29.8349 19.0413C30.3165 18.6132 31.6544 17.4358 31.6009 16.1514C31.5474 14.867 30.6911 14.8135 30.4771 14.8135H30.4235L30.6376 12.8869C30.7446 10.5856 29.7278 9.72936 28.9786 9.40826C29.7278 8.33792 29.5138 7.6422 29.5138 7.58869L29.3532 7.10703L28.9251 7.42813C28.4434 7.74924 27.9618 7.90979 27.4801 7.90979C27.159 7.90979 26.945 7.80275 26.945 7.80275C25.5 7.16055 22.4495 7 22.289 7C19.1315 7 18.1682 8.6055 17.9541 9.24771C15.2783 9.56881 15.3853 12.2446 15.4388 13.5291C15.4388 13.7431 15.4388 13.9572 15.4388 14.1177C15.4388 14.3853 15.4388 14.6529 15.4924 14.9205C15.1177 14.9205 14.422 15.1346 14.422 16.2584C14.3685 17.5428 15.7064 18.7737 16.1881 19.1483C16.2416 20.7003 16.9373 22.0917 17.9006 23.2156C16.9908 23.2156 15.5459 23.3226 14.7431 24.2324C14.1544 24.9281 13.9939 25.8914 14.315 27.1758C10.5688 28.4067 8 31.9924 8 35.9526V37.6651H30.4771C31.3333 40.1804 33.7416 42 36.5245 42C40.0566 42 42.9465 39.1101 42.9465 35.578C43 32.0459 40.1101 29.156 36.578 29.156ZM30.4771 24.8211C30.9587 25.3563 31.0122 26.2125 30.6376 27.3899C30.5841 27.4969 29.5138 29.7982 26.3028 30.6544C26.0887 30.0658 25.6606 29.5841 25.0719 29.3165C25.5535 29.0489 25.9281 28.7278 26.2492 28.3532C27.4801 26.9083 27.5336 24.9281 27.5336 24.1254C28.2829 24.0184 29.7813 24.0183 30.4771 24.8211ZM26.0887 33.0092C26.4633 33.0092 26.7309 33.3303 26.7309 33.6514C26.7309 34.026 26.4098 34.2936 26.0887 34.2936C25.7141 34.2936 25.393 33.9725 25.393 33.6514C25.4465 33.3303 25.7141 33.0092 26.0887 33.0092ZM22.7706 29.0489C21.6468 28.9419 20.737 28.5138 20.1483 27.818C19.2385 26.7477 19.078 25.1957 19.0245 24.393C20.2554 25.3563 21.6468 25.945 22.9847 25.945C24.1086 25.945 25.5535 25.4098 26.7844 24.4465C26.7844 25.3028 26.5703 26.8012 25.6606 27.8716C25.0719 28.5138 24.1621 28.9419 23.0382 29.0489H22.7706ZM18.2752 9.99694H18.5963L18.6498 9.67584C18.6498 9.67584 19.0245 7.74924 22.289 7.74924C22.3425 7.74924 25.2859 7.90979 26.6239 8.49847C26.6774 8.49847 26.9985 8.65902 27.4801 8.65902C27.8547 8.65902 28.2294 8.6055 28.5505 8.44495C28.4434 8.65902 28.2294 8.92661 27.9618 9.24771L27.3731 9.88991L28.2294 9.94343C28.2829 9.94343 29.9954 10.104 29.8349 12.7798L29.6208 14.7064L28.711 15.081C28.4969 14.8135 28.1758 14.7064 28.0153 14.6529C27.5872 14.5994 27.159 14.5994 26.6239 14.5994C25.7141 14.5994 24.8578 14.7064 24.8043 14.7064C24.1086 14.8135 23.6269 15.0275 23.4128 15.4557C23.4128 15.5092 23.4128 15.5092 23.3593 15.5627H22.6636C22.6636 15.5092 22.6636 15.5092 22.6101 15.4557C22.396 15.0275 21.9144 14.7599 21.2187 14.7064C21.1651 14.7064 20.3089 14.5994 19.3991 14.5994C18.8639 14.5994 18.3823 14.6529 18.0612 14.7064C17.9006 14.7599 17.5795 14.867 17.3654 15.1346L16.2951 14.7064C16.2951 14.4924 16.2416 14.3318 16.2416 14.1713C16.2416 14.0107 16.2416 13.7966 16.2416 13.5291C16.1346 11.7095 16.2416 10.104 18.2752 9.99694ZM28.1758 16.3654L28.1223 16.7401C27.9618 17.7034 27.9083 17.8639 27.4266 17.9709C27.4266 17.9709 26.8914 18.078 26.2492 18.078C25.5535 18.078 25.0719 17.9174 24.8043 17.7034C24.6973 17.5428 24.3761 16.9541 24.1086 16.2584C24.1086 16.2584 24.0015 15.9908 24.1086 15.8303C24.2156 15.6697 24.4832 15.5627 24.8578 15.5092C24.8578 15.5092 25.7141 15.4021 26.6239 15.4021C27.1055 15.4021 27.5336 15.4557 27.8012 15.5092C27.8547 15.4557 28.3364 15.5627 28.1758 16.3654ZM21.8609 16.3119C21.5933 17.0076 21.2722 17.5963 21.1651 17.7034C20.8976 17.9709 20.4159 18.078 19.7202 18.078C19.1315 18.078 18.5963 17.9709 18.5963 17.9709C18.1147 17.8104 18.0612 17.6498 17.9006 16.6865L17.8471 16.3119C17.7401 15.5627 18.1147 15.4557 18.2217 15.4021C18.4893 15.3486 18.9174 15.2951 19.3991 15.2951C20.2554 15.2951 21.1116 15.4021 21.1116 15.4021C21.5398 15.4557 21.8073 15.5627 21.8609 15.7232C22.0214 15.9908 21.9144 16.2584 21.8609 16.3119ZM16.9908 18.7737L16.8303 18.6667C16.3486 18.2921 15.1713 17.2217 15.2248 16.3119C15.2248 15.7232 15.4388 15.7232 15.5994 15.7232C15.8135 15.7232 16.0275 15.6162 16.1346 15.5092L17.0443 15.8838C16.9908 16.0979 16.9908 16.3119 17.0443 16.5795L17.0979 16.9541C17.2584 17.9174 17.3654 18.5596 18.3823 18.8807C18.3823 18.8807 19.0245 18.9878 19.7202 18.9878C20.6835 18.9878 21.3792 18.7737 21.8073 18.292L21.8609 18.2385C21.8609 18.185 22.3425 17.4893 22.6636 16.6865C22.6636 16.6865 22.7171 16.526 22.7706 16.3654H23.3593C23.4128 16.526 23.4664 16.633 23.4664 16.633C23.7875 17.4893 24.2691 18.185 24.2691 18.2385L24.3226 18.292C24.7508 18.7202 25.4465 18.9878 26.4098 18.9878C27.1055 18.9878 27.6942 18.8807 27.7477 18.8272C28.7645 18.5061 28.8716 17.9174 29.0321 16.9541L29.0856 16.5795C29.1391 16.3119 29.1391 16.0979 29.0856 15.8838L29.9419 15.5627C30.0489 15.6162 30.156 15.6697 30.263 15.6697H30.4235C30.4771 15.6697 30.5306 15.6697 30.5841 15.6697C30.6911 15.6697 30.9052 15.6697 30.9052 16.2584C30.9052 17.1682 29.7278 18.2921 29.2997 18.6132L29.1391 18.7202V18.9343C29.1391 20.7003 28.1758 22.3593 26.8914 23.4832C25.7141 24.5 24.2691 25.1422 23.1453 25.1422C20.4694 25.1422 17.2049 22.4128 17.1514 19.0413L16.9908 18.7737ZM15.3853 24.8211C16.081 24.0183 17.5795 24.0184 18.2752 24.0719C18.2752 24.9281 18.3287 26.9083 19.5596 28.2997C19.9343 28.7813 20.4159 29.1024 21.0046 29.37C20.5229 29.6911 20.1483 30.1728 19.9343 30.708C16.4021 29.9052 15.2248 27.4434 15.2248 27.3899C14.8502 26.2125 14.9037 25.3563 15.3853 24.8211ZM20.2018 33.9725C20.5765 33.9725 20.8976 34.2936 20.8976 34.6147C20.8976 34.9893 20.5765 35.2569 20.2018 35.2569C19.8272 35.2569 19.5061 34.9358 19.5061 34.6147C19.5596 34.2401 19.8272 33.9725 20.2018 33.9725ZM8.80275 36.9159V36.0061C8.80275 32.367 11.1575 29.156 14.5826 27.9786C15.0107 28.7278 16.4557 30.815 19.7737 31.5642V33.2232C19.1315 33.3838 18.7034 33.9725 18.7034 34.6147C18.7034 35.4174 19.3456 36.0596 20.2018 36.0596C21.0581 36.0596 21.7003 35.4174 21.7003 34.6147C21.7003 33.919 21.2722 33.3838 20.63 33.2232V31.4572C20.63 30.5474 21.3257 29.8517 22.2355 29.8517H22.7706C22.8242 29.8517 22.8777 29.8517 22.9312 29.8517H22.9847C23.0382 29.8517 23.0917 29.8517 23.1453 29.8517H24.1621C25.0719 29.8517 25.7676 30.5474 25.7676 31.4572V32.2599C25.1254 32.4205 24.6972 33.0092 24.6972 33.6514C24.6972 34.4541 25.3395 35.0963 26.1422 35.0963C26.945 35.0963 27.5872 34.4541 27.5872 33.6514C27.5872 32.9557 27.159 32.4205 26.5168 32.2599V31.4572C29.5673 30.6544 30.9052 28.6743 31.2798 27.9251C32.4037 28.2462 33.4205 28.8349 34.2768 29.5841C31.8685 30.4939 30.1024 32.8486 30.1024 35.578C30.1024 36.0061 30.156 36.4878 30.263 36.8624H8.80275V36.9159ZM36.578 41.1973C33.474 41.1973 30.9587 38.682 30.9587 35.578C30.9587 32.474 33.474 29.9587 36.578 29.9587C39.682 29.9587 42.1973 32.474 42.1973 35.578C42.1973 38.682 39.682 41.1973 36.578 41.1973Z"/>
</mask>
<path d="M36.578 29.156C36.0963 29.156 35.6682 29.2095 35.1865 29.3165C34.1697 28.2997 32.9388 27.604 31.5474 27.1758C31.815 25.945 31.708 24.9817 31.0658 24.2859C30.263 23.3761 28.9251 23.2156 28.0153 23.2691C29.0321 22.1453 29.7813 20.7003 29.8349 19.0413C30.3165 18.6132 31.6544 17.4358 31.6009 16.1514C31.5474 14.867 30.6911 14.8135 30.4771 14.8135H30.4235L30.6376 12.8869C30.7446 10.5856 29.7278 9.72936 28.9786 9.40826C29.7278 8.33792 29.5138 7.6422 29.5138 7.58869L29.3532 7.10703L28.9251 7.42813C28.4434 7.74924 27.9618 7.90979 27.4801 7.90979C27.159 7.90979 26.945 7.80275 26.945 7.80275C25.5 7.16055 22.4495 7 22.289 7C19.1315 7 18.1682 8.6055 17.9541 9.24771C15.2783 9.56881 15.3853 12.2446 15.4388 13.5291C15.4388 13.7431 15.4388 13.9572 15.4388 14.1177C15.4388 14.3853 15.4388 14.6529 15.4924 14.9205C15.1177 14.9205 14.422 15.1346 14.422 16.2584C14.3685 17.5428 15.7064 18.7737 16.1881 19.1483C16.2416 20.7003 16.9373 22.0917 17.9006 23.2156C16.9908 23.2156 15.5459 23.3226 14.7431 24.2324C14.1544 24.9281 13.9939 25.8914 14.315 27.1758C10.5688 28.4067 8 31.9924 8 35.9526V37.6651H30.4771C31.3333 40.1804 33.7416 42 36.5245 42C40.0566 42 42.9465 39.1101 42.9465 35.578C43 32.0459 40.1101 29.156 36.578 29.156ZM30.4771 24.8211C30.9587 25.3563 31.0122 26.2125 30.6376 27.3899C30.5841 27.4969 29.5138 29.7982 26.3028 30.6544C26.0887 30.0658 25.6606 29.5841 25.0719 29.3165C25.5535 29.0489 25.9281 28.7278 26.2492 28.3532C27.4801 26.9083 27.5336 24.9281 27.5336 24.1254C28.2829 24.0184 29.7813 24.0183 30.4771 24.8211ZM26.0887 33.0092C26.4633 33.0092 26.7309 33.3303 26.7309 33.6514C26.7309 34.026 26.4098 34.2936 26.0887 34.2936C25.7141 34.2936 25.393 33.9725 25.393 33.6514C25.4465 33.3303 25.7141 33.0092 26.0887 33.0092ZM22.7706 29.0489C21.6468 28.9419 20.737 28.5138 20.1483 27.818C19.2385 26.7477 19.078 25.1957 19.0245 24.393C20.2554 25.3563 21.6468 25.945 22.9847 25.945C24.1086 25.945 25.5535 25.4098 26.7844 24.4465C26.7844 25.3028 26.5703 26.8012 25.6606 27.8716C25.0719 28.5138 24.1621 28.9419 23.0382 29.0489H22.7706ZM18.2752 9.99694H18.5963L18.6498 9.67584C18.6498 9.67584 19.0245 7.74924 22.289 7.74924C22.3425 7.74924 25.2859 7.90979 26.6239 8.49847C26.6774 8.49847 26.9985 8.65902 27.4801 8.65902C27.8547 8.65902 28.2294 8.6055 28.5505 8.44495C28.4434 8.65902 28.2294 8.92661 27.9618 9.24771L27.3731 9.88991L28.2294 9.94343C28.2829 9.94343 29.9954 10.104 29.8349 12.7798L29.6208 14.7064L28.711 15.081C28.4969 14.8135 28.1758 14.7064 28.0153 14.6529C27.5872 14.5994 27.159 14.5994 26.6239 14.5994C25.7141 14.5994 24.8578 14.7064 24.8043 14.7064C24.1086 14.8135 23.6269 15.0275 23.4128 15.4557C23.4128 15.5092 23.4128 15.5092 23.3593 15.5627H22.6636C22.6636 15.5092 22.6636 15.5092 22.6101 15.4557C22.396 15.0275 21.9144 14.7599 21.2187 14.7064C21.1651 14.7064 20.3089 14.5994 19.3991 14.5994C18.8639 14.5994 18.3823 14.6529 18.0612 14.7064C17.9006 14.7599 17.5795 14.867 17.3654 15.1346L16.2951 14.7064C16.2951 14.4924 16.2416 14.3318 16.2416 14.1713C16.2416 14.0107 16.2416 13.7966 16.2416 13.5291C16.1346 11.7095 16.2416 10.104 18.2752 9.99694ZM28.1758 16.3654L28.1223 16.7401C27.9618 17.7034 27.9083 17.8639 27.4266 17.9709C27.4266 17.9709 26.8914 18.078 26.2492 18.078C25.5535 18.078 25.0719 17.9174 24.8043 17.7034C24.6973 17.5428 24.3761 16.9541 24.1086 16.2584C24.1086 16.2584 24.0015 15.9908 24.1086 15.8303C24.2156 15.6697 24.4832 15.5627 24.8578 15.5092C24.8578 15.5092 25.7141 15.4021 26.6239 15.4021C27.1055 15.4021 27.5336 15.4557 27.8012 15.5092C27.8547 15.4557 28.3364 15.5627 28.1758 16.3654ZM21.8609 16.3119C21.5933 17.0076 21.2722 17.5963 21.1651 17.7034C20.8976 17.9709 20.4159 18.078 19.7202 18.078C19.1315 18.078 18.5963 17.9709 18.5963 17.9709C18.1147 17.8104 18.0612 17.6498 17.9006 16.6865L17.8471 16.3119C17.7401 15.5627 18.1147 15.4557 18.2217 15.4021C18.4893 15.3486 18.9174 15.2951 19.3991 15.2951C20.2554 15.2951 21.1116 15.4021 21.1116 15.4021C21.5398 15.4557 21.8073 15.5627 21.8609 15.7232C22.0214 15.9908 21.9144 16.2584 21.8609 16.3119ZM16.9908 18.7737L16.8303 18.6667C16.3486 18.2921 15.1713 17.2217 15.2248 16.3119C15.2248 15.7232 15.4388 15.7232 15.5994 15.7232C15.8135 15.7232 16.0275 15.6162 16.1346 15.5092L17.0443 15.8838C16.9908 16.0979 16.9908 16.3119 17.0443 16.5795L17.0979 16.9541C17.2584 17.9174 17.3654 18.5596 18.3823 18.8807C18.3823 18.8807 19.0245 18.9878 19.7202 18.9878C20.6835 18.9878 21.3792 18.7737 21.8073 18.292L21.8609 18.2385C21.8609 18.185 22.3425 17.4893 22.6636 16.6865C22.6636 16.6865 22.7171 16.526 22.7706 16.3654H23.3593C23.4128 16.526 23.4664 16.633 23.4664 16.633C23.7875 17.4893 24.2691 18.185 24.2691 18.2385L24.3226 18.292C24.7508 18.7202 25.4465 18.9878 26.4098 18.9878C27.1055 18.9878 27.6942 18.8807 27.7477 18.8272C28.7645 18.5061 28.8716 17.9174 29.0321 16.9541L29.0856 16.5795C29.1391 16.3119 29.1391 16.0979 29.0856 15.8838L29.9419 15.5627C30.0489 15.6162 30.156 15.6697 30.263 15.6697H30.4235C30.4771 15.6697 30.5306 15.6697 30.5841 15.6697C30.6911 15.6697 30.9052 15.6697 30.9052 16.2584C30.9052 17.1682 29.7278 18.2921 29.2997 18.6132L29.1391 18.7202V18.9343C29.1391 20.7003 28.1758 22.3593 26.8914 23.4832C25.7141 24.5 24.2691 25.1422 23.1453 25.1422C20.4694 25.1422 17.2049 22.4128 17.1514 19.0413L16.9908 18.7737ZM15.3853 24.8211C16.081 24.0183 17.5795 24.0184 18.2752 24.0719C18.2752 24.9281 18.3287 26.9083 19.5596 28.2997C19.9343 28.7813 20.4159 29.1024 21.0046 29.37C20.5229 29.6911 20.1483 30.1728 19.9343 30.708C16.4021 29.9052 15.2248 27.4434 15.2248 27.3899C14.8502 26.2125 14.9037 25.3563 15.3853 24.8211ZM20.2018 33.9725C20.5765 33.9725 20.8976 34.2936 20.8976 34.6147C20.8976 34.9893 20.5765 35.2569 20.2018 35.2569C19.8272 35.2569 19.5061 34.9358 19.5061 34.6147C19.5596 34.2401 19.8272 33.9725 20.2018 33.9725ZM8.80275 36.9159V36.0061C8.80275 32.367 11.1575 29.156 14.5826 27.9786C15.0107 28.7278 16.4557 30.815 19.7737 31.5642V33.2232C19.1315 33.3838 18.7034 33.9725 18.7034 34.6147C18.7034 35.4174 19.3456 36.0596 20.2018 36.0596C21.0581 36.0596 21.7003 35.4174 21.7003 34.6147C21.7003 33.919 21.2722 33.3838 20.63 33.2232V31.4572C20.63 30.5474 21.3257 29.8517 22.2355 29.8517H22.7706C22.8242 29.8517 22.8777 29.8517 22.9312 29.8517H22.9847C23.0382 29.8517 23.0917 29.8517 23.1453 29.8517H24.1621C25.0719 29.8517 25.7676 30.5474 25.7676 31.4572V32.2599C25.1254 32.4205 24.6972 33.0092 24.6972 33.6514C24.6972 34.4541 25.3395 35.0963 26.1422 35.0963C26.945 35.0963 27.5872 34.4541 27.5872 33.6514C27.5872 32.9557 27.159 32.4205 26.5168 32.2599V31.4572C29.5673 30.6544 30.9052 28.6743 31.2798 27.9251C32.4037 28.2462 33.4205 28.8349 34.2768 29.5841C31.8685 30.4939 30.1024 32.8486 30.1024 35.578C30.1024 36.0061 30.156 36.4878 30.263 36.8624H8.80275V36.9159ZM36.578 41.1973C33.474 41.1973 30.9587 38.682 30.9587 35.578C30.9587 32.474 33.474 29.9587 36.578 29.9587C39.682 29.9587 42.1973 32.474 42.1973 35.578C42.1973 38.682 39.682 41.1973 36.578 41.1973Z" fill="#37474F" stroke="white" stroke-width="2" mask="url(#path-8-inside-4)"/>
</svg>
