<svg width="53" height="50" viewBox="0 0 53 50" fill="none" xmlns="http://www.w3.org/2000/svg">
<g clip-path="url(#clip0)">
<path d="M3.29583 11.7458C-1.3 18.35 -0.727086 26.9417 2.78333 33.9604C2.86666 34.1271 2.95 34.2937 3.03958 34.4604C3.09375 34.5646 3.14583 34.6729 3.20625 34.775C3.2375 34.8375 3.275 34.8979 3.30833 34.9562C3.36875 35.0687 3.42916 35.175 3.49166 35.2896C3.60278 35.4812 3.71389 35.6722 3.825 35.8625C3.8875 35.9667 3.95 36.0729 4.01666 36.1771C4.14305 36.3812 4.27222 36.584 4.40416 36.7854C4.45833 36.8729 4.5125 36.9521 4.57083 37.0396C4.75416 37.3125 4.94166 37.5854 5.13333 37.8521L5.15 37.8729C5.17916 37.9167 5.21458 37.9583 5.24583 38.0021C5.4125 38.2312 5.57916 38.4604 5.75833 38.6854L5.95208 38.9312C6.10764 39.1271 6.26597 39.3215 6.42708 39.5146L6.60833 39.7312C6.82291 39.9854 7.04375 40.2312 7.275 40.4854L7.2875 40.4979L7.3125 40.525C7.53333 40.7646 7.75833 41 7.97916 41.2333L8.19375 41.45C8.37083 41.6271 8.54791 41.8021 8.73125 41.975C8.80416 42.0458 8.87708 42.1167 8.95208 42.1833C9.19375 42.4125 9.43958 42.6354 9.6875 42.85C9.69166 42.8542 9.69375 42.8583 9.7 42.8604C9.74166 42.8979 9.7875 42.9333 9.82916 42.9688C10.0514 43.159 10.2736 43.3472 10.4958 43.5333L10.7729 43.7542C10.9562 43.9014 11.1417 44.0465 11.3292 44.1896L11.6271 44.4167C11.8333 44.5687 12.0417 44.7188 12.2521 44.8625C12.3292 44.9167 12.4021 44.9708 12.4812 45.0292L12.5437 45.075C12.7437 45.2125 12.9479 45.3458 13.15 45.4771C13.2375 45.5354 13.3167 45.5958 13.4125 45.6437C13.725 45.8396 14.0417 46.0375 14.3625 46.225L14.625 46.3729C14.8604 46.5104 15.0958 46.6437 15.3375 46.7729C15.4667 46.8438 15.6 46.9104 15.7312 46.9771C15.8979 47.0667 16.0646 47.1562 16.2417 47.2417L16.3604 47.2979L16.5687 47.4C16.8354 47.5278 17.1049 47.6528 17.3771 47.775L17.5437 47.8521C17.8549 47.9882 18.1694 48.1194 18.4875 48.2458L18.7167 48.3354C19.0104 48.4479 19.3083 48.5604 19.6062 48.6688L19.7187 48.7062C20.0521 48.8208 20.3854 48.9271 20.7187 49.0312L20.9583 49.1021C21.225 49.1979 21.5667 49.2979 21.9187 49.3771L21.9833 49.3896C44.2062 53.4417 50.6625 36.0354 50.6625 36.0354C45.2417 43.0979 35.6167 44.9625 26.4958 42.8875C26.15 42.8083 25.8167 42.7021 25.4771 42.6021L25.2229 42.525C24.8896 42.4236 24.5632 42.3174 24.2437 42.2062L24.1083 42.1583C23.8187 42.0562 23.5292 41.9479 23.2458 41.8375L23.0042 41.7417C22.6917 41.6187 22.3792 41.4875 22.0708 41.3542L21.8833 41.2708C21.6187 41.15 21.3562 41.0312 21.0958 40.9062L20.8687 40.7958C20.6646 40.6958 20.4625 40.5917 20.2604 40.4854C20.125 40.4146 19.9875 40.3479 19.8542 40.2729C19.6083 40.1417 19.3667 40.0021 19.125 39.8625L18.8792 39.725C18.5583 39.5375 18.2417 39.3396 17.9292 39.1437C17.8417 39.0896 17.7625 39.0312 17.6729 38.9771C17.4458 38.8312 17.2187 38.6812 16.9958 38.5271C16.9229 38.4792 16.85 38.4229 16.7771 38.3729C16.5618 38.2215 16.3486 38.0674 16.1375 37.9104C16.0417 37.8396 15.9479 37.7667 15.8542 37.6958C15.6604 37.5479 15.4667 37.4 15.2771 37.2437L15.0208 37.0375C14.7792 36.8375 14.5396 36.6396 14.3021 36.4333L14.2229 36.3667C13.9687 36.1417 13.7229 35.9125 13.4687 35.6792L13.2562 35.475C13.0715 35.3 12.891 35.1229 12.7146 34.9437L12.5021 34.7312C12.2799 34.4993 12.0576 34.2646 11.8354 34.0271L11.8021 33.9917C11.5729 33.7396 11.3479 33.4833 11.1271 33.2229L10.9542 33.0104C10.7875 32.8125 10.6208 32.6125 10.4687 32.4104C10.4083 32.3396 10.3479 32.2646 10.2896 32.1896C10.0979 31.9417 9.91041 31.6896 9.72708 31.4437C4.66458 24.5396 2.84583 15.0146 6.89375 7.19375L3.29583 11.7458Z" fill="#37474F"/>
<path d="M17.5604 6.17917C15.9895 8.60833 15.0562 11.5792 15.0562 14.7646C15.0562 17.5708 15.7791 20.2083 17.052 22.5021L17.0104 22.4208C17.5 23.3729 17.9875 24.1771 18.525 24.9417L18.4791 24.875C18.9875 25.6812 19.552 26.3813 20.1875 27.0083L20.1895 27.0104C20.4291 27.2729 20.6791 27.5312 20.9354 27.7833C21 27.85 21.0645 27.9125 21.1312 27.9792C21.3791 28.2188 21.6312 28.4563 21.8937 28.6854C21.9041 28.6938 21.9145 28.7062 21.925 28.7125C22.2125 28.9667 22.5125 29.2125 22.8145 29.4479L23.0166 29.6062C23.3208 29.8396 23.6291 30.0688 23.9458 30.2854L23.9729 30.3062C24.1125 30.4021 24.2562 30.4937 24.3979 30.5854C24.4666 30.6312 24.5312 30.6771 24.6 30.7188C24.827 30.8646 25.0562 31.0062 25.2895 31.1417L25.3854 31.1979C25.5875 31.3146 25.7895 31.4271 25.9958 31.5312C26.0666 31.5708 26.1395 31.6063 26.2125 31.6438C26.3541 31.7167 26.4958 31.7917 26.6395 31.8646L26.702 31.8937C26.9958 32.0396 27.2895 32.1771 27.5916 32.3083C27.6562 32.3375 27.7208 32.3625 27.7875 32.3896C28.027 32.4917 28.2729 32.5917 28.5166 32.6854L28.8291 32.8C29.05 32.8813 29.275 32.9583 29.4958 33.0333L29.8 33.1292C30.0625 33.2292 30.3854 33.325 30.7187 33.4L30.7687 33.4083C47.927 36.2521 51.8895 23.0396 51.8895 23.0396C48.3187 28.1812 41.4021 30.6354 34.025 28.7208C33.6916 28.6333 33.375 28.5417 33.0541 28.4396C32.9562 28.4104 32.8583 28.3771 32.7625 28.3437C32.5333 28.2708 32.3083 28.1896 32.0833 28.1083L31.777 27.9958C31.5312 27.9 31.2875 27.8021 31.0458 27.7C30.9791 27.6708 30.9125 27.6458 30.85 27.6167C30.5458 27.4854 30.2479 27.3458 29.9541 27.2021C29.802 27.1271 29.6541 27.0479 29.5062 26.9729L29.2479 26.8396C29.0562 26.7354 28.8666 26.6285 28.6791 26.5187C28.6354 26.4937 28.5895 26.4688 28.5437 26.4417C28.3118 26.3056 28.0826 26.1653 27.8562 26.0208C27.7854 25.975 27.7187 25.9271 27.65 25.8833C27.5 25.7875 27.352 25.6875 27.2041 25.5875C26.8875 25.3687 26.5812 25.1417 26.277 24.9083L26.0687 24.7417C22.8416 22.2188 20.4062 18.8188 19.1104 14.9021L19.0687 14.7563C18.577 13.3104 18.2916 11.6438 18.2916 9.9125C18.2916 7.125 19.027 4.50833 20.3166 2.24792L20.277 2.325L17.5604 6.17917Z" fill="#37474F"/>
<path d="M29.5583 2.02083C28.5083 3.57708 27.8833 5.49583 27.8833 7.56042C27.8833 9.05 28.2083 10.4625 28.7916 11.7313L28.7666 11.6688C30.2875 15.0583 33.0562 17.6604 36.4729 18.9271L36.5666 18.9583C36.7083 19.0125 36.8479 19.0583 36.9937 19.1063L37.1812 19.1646C37.3437 19.225 37.5479 19.2854 37.7562 19.3333L37.7916 19.3396C47.2645 21.1729 49.8354 14.4771 50.5208 13.4938C48.2687 16.7354 44.4875 17.5125 39.8458 16.3875C39.4791 16.2979 39.075 16.1667 38.7229 16.0396C38.177 15.8458 37.7354 15.6583 37.3083 15.45L37.3896 15.4854C36.4979 15.05 35.7333 14.5771 35.0229 14.0333L35.0562 14.0583C30.9021 10.9063 28.3229 4.89167 31.0333 -0.00208282L29.5583 2.02083Z" fill="#37474F"/>
</g>
<defs>
<clipPath id="clip0">
<rect width="52.0833" height="50" fill="white"/>
</clipPath>
</defs>
</svg>
