<svg width="44" height="50" viewBox="0 0 44 50" fill="none" xmlns="http://www.w3.org/2000/svg">
<g clip-path="url(#clip0)">
<path d="M39.0625 3.125H4.6875C2.09961 3.125 0 5.22461 0 7.8125V42.1875C0 44.7754 2.09961 46.875 4.6875 46.875H39.0625C41.6504 46.875 43.75 44.7754 43.75 42.1875V7.8125C43.75 5.22461 41.6504 3.125 39.0625 3.125ZM23.8086 37.2461C23.8086 41.5039 21.3086 43.4473 17.666 43.4473C14.375 43.4473 12.4707 41.748 11.4941 39.6875L14.8438 37.666C15.4883 38.8086 16.0742 39.7754 17.4902 39.7754C18.8379 39.7754 19.6973 39.248 19.6973 37.1875V23.2129H23.8086V37.2461ZM33.5352 43.4473C29.7168 43.4473 27.2461 41.6309 26.0449 39.248L29.3945 37.3145C30.2734 38.75 31.4258 39.8145 33.4473 39.8145C35.1465 39.8145 36.2402 38.9648 36.2402 37.7832C36.2402 36.377 35.127 35.8789 33.2422 35.0488L32.2168 34.6094C29.248 33.3496 27.2852 31.7578 27.2852 28.4082C27.2852 25.3223 29.6387 22.9785 33.3008 22.9785C35.918 22.9785 37.793 23.8867 39.1406 26.2695L35.9375 28.3203C35.2344 27.0605 34.4727 26.5625 33.291 26.5625C32.0898 26.5625 31.3281 27.3242 31.3281 28.3203C31.3281 29.5508 32.0898 30.0488 33.8574 30.8203L34.8828 31.2598C38.3789 32.7539 40.3418 34.2871 40.3418 37.7246C40.3418 41.416 37.4316 43.4473 33.5352 43.4473Z" fill="#37474F"/>
</g>
<defs>
<clipPath id="clip0">
<rect width="43.75" height="50" fill="white"/>
</clipPath>
</defs>
</svg>
