<svg width="44" height="50" viewBox="0 0 44 50" fill="none" xmlns="http://www.w3.org/2000/svg">
<g clip-path="url(#clip0)">
<path d="M40.625 3.125H3.11523C1.39648 3.125 0 4.54102 0 6.2793V43.7207C0 45.459 1.39648 46.875 3.11523 46.875H40.625C42.3438 46.875 43.75 45.459 43.75 43.7207V6.2793C43.75 4.54102 42.3438 3.125 40.625 3.125ZM13.2227 40.625H6.73828V19.7461H13.2324V40.625H13.2227ZM9.98047 16.8945C7.90039 16.8945 6.2207 15.2051 6.2207 13.1348C6.2207 11.0645 7.90039 9.375 9.98047 9.375C12.0508 9.375 13.7402 11.0645 13.7402 13.1348C13.7402 15.2148 12.0605 16.8945 9.98047 16.8945ZM37.5293 40.625H31.0449V30.4688C31.0449 28.0469 30.9961 24.9316 27.6758 24.9316C24.2969 24.9316 23.7793 27.5684 23.7793 30.293V40.625H17.2949V19.7461H23.5156V22.5977H23.6035C24.4727 20.957 26.5918 19.2285 29.7461 19.2285C36.3086 19.2285 37.5293 23.5547 37.5293 29.1797V40.625Z" fill="#37474F"/>
</g>
<defs>
<clipPath id="clip0">
<rect width="43.75" height="50" fill="white"/>
</clipPath>
</defs>
</svg>
