<svg width="44" height="50" viewBox="0 0 44 50" fill="none" xmlns="http://www.w3.org/2000/svg">
<g clip-path="url(#clip0)">
<path d="M21.875 49.6094C21.2207 49.6094 20.5566 49.4336 19.9805 49.1016L13.9551 45.5371C13.0566 45.0293 13.4961 44.8535 13.7891 44.7559C14.9902 44.336 15.2344 44.2481 16.5137 43.5156C16.6504 43.4375 16.8262 43.4668 16.9629 43.5547L21.5918 46.2988C21.7578 46.3965 21.9922 46.3965 22.1484 46.2988L40.1855 35.8887C40.3516 35.791 40.459 35.5957 40.459 35.4004V14.5801C40.459 14.375 40.3516 14.1895 40.1758 14.082L22.1484 3.68164C21.9824 3.58399 21.7578 3.58399 21.5918 3.68164L3.57422 14.0918C3.39844 14.1895 3.29102 14.3848 3.29102 14.5898V35.4004C3.29102 35.5957 3.39844 35.791 3.57422 35.8789L8.51562 38.7305C11.2012 40.0684 12.8418 38.4961 12.8418 36.9043V16.3574C12.8418 16.0645 13.0762 15.8398 13.3691 15.8398H15.6543C15.9375 15.8398 16.1816 16.0645 16.1816 16.3574V36.9141C16.1816 40.4883 14.2285 42.5391 10.8398 42.5391C9.79492 42.5391 8.97461 42.5391 6.68945 41.4063L1.96289 38.6817C0.791016 38.0078 0.0683594 36.7481 0.0683594 35.3906V14.5801C0.0683594 13.2324 0.791016 11.9629 1.96289 11.2891L19.9805 0.878906C21.123 0.234375 22.6367 0.234375 23.7695 0.878906L41.8066 11.2988C42.9785 11.9727 43.7012 13.2324 43.7012 14.5898V35.4004C43.7012 36.7481 42.9785 38.0078 41.8066 38.6914L23.7695 49.1016C23.1934 49.4336 22.5391 49.6094 21.875 49.6094ZM36.4355 29.0918C36.4355 25.1953 33.7988 24.1602 28.2617 23.4277C22.6562 22.6856 22.0898 22.3047 22.0898 20.9961C22.0898 19.9121 22.5684 18.4668 26.7188 18.4668C30.4199 18.4668 31.7871 19.2676 32.3535 21.7676C32.4023 22.002 32.6172 22.1777 32.8613 22.1777H35.2051C35.3516 22.1777 35.4883 22.1191 35.5859 22.0117C35.6836 21.9043 35.7324 21.7578 35.7227 21.6113C35.3613 17.3047 32.5 15.3027 26.7188 15.3027C21.5723 15.3027 18.5059 17.4707 18.5059 21.1133C18.5059 25.0586 21.5625 26.1524 26.4941 26.6406C32.4023 27.2168 32.8613 28.0859 32.8613 29.2481C32.8613 31.2598 31.2402 32.1192 27.4414 32.1192C22.666 32.1192 21.6211 30.918 21.2695 28.5449C21.2305 28.291 21.0156 28.1055 20.752 28.1055H18.418C18.125 28.1055 17.9004 28.3399 17.9004 28.6231C17.9004 31.6602 19.5508 35.2832 27.4512 35.2832C33.1543 35.2734 36.4355 33.0176 36.4355 29.0918Z" fill="#37474F"/>
</g>
<defs>
<clipPath id="clip0">
<rect width="43.75" height="50" fill="white"/>
</clipPath>
</defs>
</svg>
