<svg width="63" height="50" viewBox="0 0 63 50" fill="none" xmlns="http://www.w3.org/2000/svg">
<g clip-path="url(#clip0)">
<path d="M31.25 10.2051C47.9883 10.2051 60.8594 17.2559 60.8594 25C60.8594 32.7441 47.9785 39.7949 31.25 39.7949C14.5117 39.7949 1.64062 32.7441 1.64062 25C1.64062 17.2559 14.5215 10.2051 31.25 10.2051ZM31.25 8.56445C13.9941 8.56445 0 15.918 0 25C0 34.082 13.9941 41.4355 31.25 41.4355C48.5059 41.4355 62.5 34.082 62.5 25C62.5 15.918 48.5059 8.56445 31.25 8.56445ZM21.3086 23.6816C20.5371 27.6367 17.8125 27.2266 14.4629 27.2266L15.8008 20.332C19.5117 20.332 22.0312 19.9316 21.3086 23.6816ZM9.51172 34.209H13.0957L13.9453 29.834C17.959 29.834 20.4492 30.1269 22.7539 27.9687C25.3027 25.625 25.9668 21.4551 24.1504 19.3652C23.2031 18.2715 21.6797 17.7344 19.6094 17.7344H12.7051L9.51172 34.209ZM27.6465 13.3496H31.2109L30.3613 17.7246C33.4375 17.7246 36.2891 17.5 37.666 18.7695C39.1113 20.0977 38.418 21.7969 36.8555 29.8144H33.2422C34.7461 22.0605 35.0293 21.416 34.4824 20.8301C33.9551 20.2637 32.7539 20.3809 29.8535 20.3809L28.0176 29.8144H24.4531L27.6465 13.3496ZM49.3164 23.6816C48.5352 27.6953 45.7324 27.2266 42.4707 27.2266L43.8086 20.332C47.5391 20.332 50.0391 19.9316 49.3164 23.6816ZM37.5195 34.209H41.1133L41.9629 29.834C46.1816 29.834 48.5156 30.0781 50.7715 27.9687C53.3203 25.625 53.9844 21.4551 52.168 19.3652C51.2207 18.2715 49.6973 17.7344 47.627 17.7344H40.7227L37.5195 34.209Z" fill="#37474F"/>
</g>
<defs>
<clipPath id="clip0">
<rect width="62.5" height="50" fill="white"/>
</clipPath>
</defs>
</svg>
