<svg width="44" height="50" viewBox="0 0 44 50" fill="none" xmlns="http://www.w3.org/2000/svg">
<g clip-path="url(#clip0)">
<path d="M39.0625 3.125H4.6875C2.09863 3.125 0 5.22363 0 7.8125V42.1875C0 44.7764 2.09863 46.875 4.6875 46.875H39.0625C41.6514 46.875 43.75 44.7764 43.75 42.1875V7.8125C43.75 5.22363 41.6514 3.125 39.0625 3.125ZM10.9375 40.625C8.34863 40.625 6.25 38.5264 6.25 35.9375C6.25 33.3486 8.34863 31.25 10.9375 31.25C13.5264 31.25 15.625 33.3486 15.625 35.9375C15.625 38.5264 13.5264 40.625 10.9375 40.625ZM26.3216 40.625H22.9686C22.3815 40.625 21.8894 40.1723 21.8512 39.5865C21.342 31.7691 15.0892 25.5318 7.28838 25.0237C6.70273 24.9856 6.25 24.4934 6.25 23.9064V20.5534C6.25 19.9152 6.78398 19.4033 7.42129 19.4377C18.2168 20.0211 26.8546 28.6697 27.4373 39.4537C27.4717 40.091 26.9598 40.625 26.3216 40.625ZM36.3828 40.625H33.0299C32.4282 40.625 31.9386 40.1482 31.914 39.5471C31.3673 26.2136 20.6636 15.5079 7.32803 14.9611C6.72676 14.9364 6.25 14.4468 6.25 13.8451V10.4922C6.25 9.86191 6.77129 9.35313 7.40107 9.37578C23.7907 9.96416 36.9138 23.164 37.4992 39.4739C37.5219 40.1037 37.0131 40.625 36.3828 40.625Z" fill="#37474F"/>
</g>
<defs>
<clipPath id="clip0">
<rect width="43.75" height="50" fill="white"/>
</clipPath>
</defs>
</svg>
