<svg width="63" height="50" viewBox="0 0 63 50" fill="none" xmlns="http://www.w3.org/2000/svg">
<g clip-path="url(#clip0)">
<path d="M29.4766 37.0039C29.4473 37.0625 29.418 37.1094 29.4766 37.0039V37.0039ZM53.8057 28.5078C51.8416 28.5072 49.9036 28.9583 48.1416 29.8262C47.5654 28.6641 46.9697 27.6484 46.8721 26.8867C46.7549 25.9981 46.6279 25.4707 46.7647 24.416C46.9014 23.3613 47.5166 21.8672 47.5069 21.7598C47.4971 21.6524 47.3701 21.1152 46.1104 21.1055C44.8506 21.0957 43.7666 21.3496 43.6406 21.6817C43.4181 22.2884 43.2451 22.9122 43.1231 23.5469C42.8985 24.6895 40.6045 28.7715 39.3057 30.9004C38.876 30.0703 38.5147 29.3379 38.4365 28.752C38.3194 27.8633 38.1924 27.3359 38.3291 26.2813C38.4658 25.2266 39.0811 23.7324 39.0713 23.625C39.0615 23.5176 38.9346 22.9805 37.6758 22.9707C36.417 22.9609 35.3321 23.2149 35.2051 23.5469C35.0781 23.8789 34.9414 24.6602 34.6875 25.4121C34.4336 26.1641 31.3779 32.9609 30.5781 34.7285C30.168 35.627 29.8164 36.3496 29.5625 36.8379C29.5235 36.916 29.4942 36.9649 29.4746 37.0039C29.5039 36.9551 29.5235 36.9063 29.5235 36.9258C29.3086 37.3457 29.1817 37.5801 29.1817 37.5801V37.5899C29.0156 37.9024 28.8301 38.1856 28.7422 38.1856C28.6836 38.1856 28.5567 37.3652 28.7715 36.2422C29.2305 33.8789 30.3145 30.207 30.3047 30.0801C30.2949 30.0117 30.5098 29.377 29.5918 29.0352C28.7031 28.7129 28.3809 29.25 28.3028 29.25C28.2246 29.25 28.166 29.4453 28.166 29.4453C28.166 29.4453 29.1524 25.3047 26.2725 25.3047C24.4756 25.3047 21.9756 27.2774 20.7471 29.0645C19.9756 29.4844 18.3057 30.3926 16.5479 31.3594C15.874 31.7305 15.1807 32.1113 14.5264 32.4727C14.4776 32.4238 14.4385 32.375 14.3897 32.3262C10.8945 28.5957 4.44142 25.959 4.71486 20.9492C4.81252 19.1231 5.44728 14.3281 17.124 8.50783C26.6944 3.7422 34.3457 5.05079 35.6631 7.96095C37.5576 12.1113 31.5723 19.8359 21.6338 20.9492C17.8457 21.3692 15.8545 19.9043 15.3565 19.3574C14.8389 18.7813 14.7608 18.752 14.5654 18.8594C14.2432 19.0352 14.4483 19.543 14.5654 19.8457C14.8584 20.6172 16.0791 21.9844 18.1582 22.668C19.9844 23.2637 24.4258 23.5957 29.7959 21.5156C35.8291 19.1914 40.5254 12.7168 39.1485 7.29689C37.7461 1.78908 28.6133 -0.0175651 19.9776 3.04884C14.832 4.87501 9.2676 7.74611 5.26467 11.4863C0.509784 15.9395 -0.250958 19.8164 0.0615417 21.4375C1.17385 27.1895 9.10158 30.9395 12.2744 33.7129C12.1182 33.8008 11.9717 33.8789 11.835 33.957C10.2442 34.7481 4.20021 37.9121 2.68752 41.252C0.978534 45.041 2.97072 47.7559 4.27834 48.127C8.35939 49.2598 12.5381 47.2188 14.7832 43.8692C17.0283 40.5195 16.7559 36.1445 15.7207 34.1524C15.711 34.1231 15.6914 34.1035 15.6817 34.0742C16.0918 33.8301 16.5117 33.5859 16.9317 33.3418C17.7412 32.8633 18.5322 32.4238 19.2256 32.043C18.835 33.0977 18.5518 34.3672 18.4053 36.2031C18.2295 38.3516 19.1182 41.1348 20.2705 42.2285C20.7783 42.707 21.3926 42.7168 21.7735 42.7168C23.1211 42.7168 23.7266 41.6035 24.3994 40.2754C25.2295 38.6543 25.9619 36.7695 25.9619 36.7695C25.9619 36.7695 25.044 41.8672 27.5537 41.8672C28.4707 41.8672 29.3887 40.6856 29.7998 40.0801V40.0899C29.7998 40.0899 29.8194 40.0508 29.8682 39.9727C29.9658 39.8262 30.0147 39.7383 30.0147 39.7383V39.709C30.3858 39.0742 31.1963 37.6192 32.416 35.2168C33.9981 32.1113 35.5108 28.2344 35.5108 28.2344C35.6569 29.0866 35.8592 29.9283 36.1162 30.7539C36.3897 31.6817 36.9658 32.6973 37.4248 33.6836C37.0537 34.1914 36.8291 34.4844 36.8291 34.4844C36.8298 34.4919 36.8333 34.4988 36.8389 34.5039C36.5459 34.8945 36.2139 35.3145 35.8721 35.7246C34.6231 37.209 33.1377 38.9082 32.9424 39.3965C32.708 39.9727 32.7666 40.4024 33.2158 40.7344C33.5479 40.9883 34.1338 41.0274 34.7481 40.9785C35.8711 40.9004 36.6621 40.627 37.043 40.4512C37.7451 40.1994 38.4087 39.851 39.0147 39.416C40.2354 38.5176 40.9776 37.2285 40.9092 35.5293C40.8701 34.5918 40.5674 33.6543 40.1963 32.7754C40.3037 32.6192 40.4209 32.4531 40.5283 32.2871C42.461 29.4649 43.9551 26.3672 43.9551 26.3672C44.1013 27.2194 44.3035 28.0611 44.5606 28.8867C44.7949 29.6777 45.2529 30.5469 45.6729 31.3965C43.8574 32.8711 42.7344 34.5801 42.3438 35.7031C41.6211 37.7832 42.1875 38.7207 43.252 38.9356C43.7305 39.0332 44.4141 38.8086 44.9219 38.5938C45.6761 38.3426 46.3872 37.977 47.0303 37.5098C48.251 36.6113 49.4317 35.3516 49.3535 33.6426C49.3242 32.8711 49.1094 32.0996 48.8262 31.3574C50.3594 30.7129 52.3506 30.3613 54.8897 30.6543C60.3272 31.2891 61.3916 34.6875 61.1865 36.1035C60.9815 37.5195 59.8389 38.3106 59.458 38.5449C59.0772 38.7793 58.96 38.8672 58.9893 39.043C59.0381 39.2969 59.2139 39.2871 59.5362 39.2285C59.9854 39.1504 62.3867 38.0762 62.4942 35.4492C62.6504 32.1289 59.458 28.4766 53.8028 28.5059L53.8057 28.5078ZM11.8936 42.6387C10.0977 44.6016 7.57814 45.3438 6.49514 44.7188C5.33303 44.043 5.79201 41.1543 8.00783 39.0625C9.35549 37.793 11.0928 36.6211 12.2451 35.8984C12.5088 35.7422 12.8897 35.5078 13.3584 35.2246C13.4365 35.1758 13.4756 35.1563 13.4756 35.1563C13.5635 35.0977 13.6611 35.0488 13.7588 34.9902C14.5684 37.959 13.7881 40.5762 11.8936 42.6367V42.6387ZM25.0147 33.7129C24.3897 35.2461 23.0723 39.1524 22.2715 38.9473C21.5879 38.7715 21.168 35.793 22.1348 32.8633C22.6231 31.3887 23.6582 29.6309 24.2735 28.9473C25.2588 27.8438 26.3428 27.4922 26.5967 27.9317C26.9385 28.5078 25.4053 32.7559 25.0147 33.7129ZM35.8545 38.8887C35.5908 39.0254 35.3467 39.1133 35.2295 39.0449C35.1416 38.9961 35.3369 38.8106 35.3369 38.8106C35.3369 38.8106 36.6944 37.3555 37.2315 36.6914C37.544 36.3008 37.9053 35.8418 38.2949 35.334C38.2949 35.3828 38.3047 35.4317 38.3047 35.4902C38.292 37.2383 36.6133 38.4199 35.8516 38.8887H35.8545ZM44.2119 36.9844C44.0166 36.8477 44.0459 36.3887 44.7002 34.9629C44.9541 34.4063 45.5391 33.4688 46.5557 32.5703C46.6708 32.9104 46.7333 33.2661 46.7412 33.625C46.7315 35.8223 45.1592 36.6426 44.2129 36.9844H44.2119Z" fill="#37474F"/>
</g>
<defs>
<clipPath id="clip0">
<rect width="62.5" height="50" fill="white"/>
</clipPath>
</defs>
</svg>
