<svg width="46" height="50" viewBox="0 0 46 50" fill="none" xmlns="http://www.w3.org/2000/svg">
<g clip-path="url(#clip0)">
<path d="M43.65 38.5417L23.4125 50V41.0708L36.0125 34.125L43.65 38.5417ZM45.0375 37.3021V13.3021L37.6458 17.6167V32.9937L45.0375 37.2604V37.3021ZM1.3875 38.5417L21.625 50V41.0708L9.025 34.125L1.3875 38.5417ZM0 37.3021V13.3021L7.39167 17.6167V32.9937L0 37.3021ZM0.84375 11.7562L21.6271 0V8.63125L8.23333 16.0229L0.84375 11.7562ZM44.1958 11.7562L23.4125 0V8.63125L36.8042 16.0229L44.1958 11.7562ZM21.6271 39.0375L9.18542 32.1896V18.5979L21.6354 25.7896L21.6271 39.0375ZM23.4125 39.0375L35.8625 32.1917V18.6L23.4125 25.7917V39.0375ZM10.0187 17.0625L22.5187 10.1667L35.0187 17.0625L22.5187 24.2562L10.0187 17.0625Z" fill="#37474F"/>
</g>
<defs>
<clipPath id="clip0">
<rect width="45.8333" height="50" fill="white"/>
</clipPath>
</defs>
</svg>
