<svg width="50" height="50" viewBox="0 0 50 50" fill="none" xmlns="http://www.w3.org/2000/svg">
<path d="M6.02539 16.543L15.9375 43.6914C9.00391 40.332 4.22852 33.2227 4.22852 25C4.22852 21.9824 4.87305 19.1309 6.02539 16.543ZM39.0234 23.9551C39.0234 21.3867 38.1055 19.6094 37.3145 18.2227C36.2598 16.5137 35.2734 15.0586 35.2734 13.3496C35.2734 11.4355 36.7188 9.6582 38.7598 9.6582C38.8477 9.6582 38.9355 9.66797 39.0332 9.67773C35.332 6.28906 30.4102 4.21875 25 4.21875C17.7441 4.21875 11.3574 7.93945 7.63672 13.584C8.125 13.6035 8.58398 13.6133 8.97461 13.6133C11.1426 13.6133 14.5117 13.3496 14.5117 13.3496C15.6348 13.2812 15.7617 14.9316 14.6484 15.0586C14.6484 15.0586 13.5254 15.1855 12.2754 15.2539L19.8438 37.7539L24.3945 24.1211L21.1621 15.2539C20.0391 15.1855 18.9844 15.0586 18.9844 15.0586C17.8613 14.9902 17.998 13.2812 19.1113 13.3496C19.1113 13.3496 22.5391 13.6133 24.5801 13.6133C26.748 13.6133 30.1172 13.3496 30.1172 13.3496C31.2402 13.2812 31.3672 14.9316 30.2539 15.0586C30.2539 15.0586 29.1309 15.1855 27.8809 15.2539L35.3906 37.5879L37.4609 30.6641C38.3398 27.793 39.0234 25.7324 39.0234 23.9551ZM25.3613 26.8164L19.1309 44.9316C20.9961 45.4785 22.959 45.7812 25 45.7812C27.4219 45.7812 29.7363 45.3613 31.8945 44.5996C31.8359 44.5117 31.7871 44.4141 31.748 44.3164L25.3613 26.8164ZM43.2324 15.0293C43.3203 15.6934 43.3691 16.3965 43.3691 17.168C43.3691 19.2773 42.9785 21.6406 41.7871 24.6094L35.4395 42.959C41.6211 39.3555 45.7715 32.666 45.7715 25C45.7715 21.3867 44.8535 17.9883 43.2324 15.0293ZM49.2188 25C49.2188 38.3594 38.3496 49.2188 25 49.2188C11.6406 49.2188 0.78125 38.3496 0.78125 25C0.78125 11.6406 11.6406 0.78125 25 0.78125C38.3496 0.78125 49.2188 11.6406 49.2188 25ZM48.1055 25C48.1055 12.2559 37.7344 1.89453 25 1.89453C12.2559 1.89453 1.89453 12.2559 1.89453 25C1.89453 37.7441 12.2656 48.1055 25 48.1055C37.7441 48.1055 48.1055 37.7441 48.1055 25Z" fill="#37474F"/>
</svg>
